<svg xmlns="http://www.w3.org/2000/svg" xmlns:xlink="http://www.w3.org/1999/xlink" width="24.125" height="25.035" viewBox="0 0 24.125 25.035">
  <defs>
    <clipPath id="clip-path">
      <rect id="Retângulo_28" data-name="Retângulo 28" width="24.125" height="25.035"/>
    </clipPath>
  </defs>
  <g id="Grupo_14950" data-name="Grupo 14950" transform="translate(0 0)">
    <g id="Grupo_2" data-name="Grupo 2" transform="translate(0 0)" clip-path="url(#clip-path)">
      <path id="Caminho_1" data-name="Caminho 1" d="M2.276,8.858A2.276,2.276,0,0,0,0,11.134v17.6A2.276,2.276,0,0,0,2.276,31.01H21.849a2.276,2.276,0,0,0,2.276-2.275v-17.6a2.276,2.276,0,0,0-2.276-2.276h-.8V10.3a1.745,1.745,0,1,1-3.49,0V8.858h-11V10.3a1.745,1.745,0,1,1-3.49,0V8.858Zm1.442,6.373H20.407a.87.87,0,0,1,.91.824v11.4a.869.869,0,0,1-.91.823H3.718a.87.87,0,0,1-.911-.823v-11.4a.87.87,0,0,1,.911-.824" transform="translate(0 -5.975)"/>
      <path id="Caminho_2" data-name="Caminho 2" d="M12.238.834v3.49a.834.834,0,1,0,1.669,0V.834a.834.834,0,0,0-1.669,0" transform="translate(-8.255 0)"/>
      <path id="Caminho_3" data-name="Caminho 3" d="M56.758.834v3.49a.834.834,0,1,0,1.669,0V.834a.834.834,0,0,0-1.669,0" transform="translate(-38.285 0)"/>
      <rect id="Retângulo_22" data-name="Retângulo 22" width="4.415" height="4.518" transform="translate(4.403 10.678)"/>
      <rect id="Retângulo_23" data-name="Retângulo 23" width="4.415" height="4.518" transform="translate(9.961 10.678)"/>
      <rect id="Retângulo_24" data-name="Retângulo 24" width="4.415" height="4.518" transform="translate(4.403 16.232)"/>
      <rect id="Retângulo_25" data-name="Retângulo 25" width="4.415" height="4.518" transform="translate(9.961 16.232)"/>
      <rect id="Retângulo_26" data-name="Retângulo 26" width="4.415" height="4.518" transform="translate(15.727 10.678)"/>
      <rect id="Retângulo_27" data-name="Retângulo 27" width="4.415" height="4.518" transform="translate(15.727 16.232)"/>
    </g>
  </g>
</svg>
