<svg xmlns="http://www.w3.org/2000/svg" xmlns:xlink="http://www.w3.org/1999/xlink" width="27.963" height="33" viewBox="0 0 27.963 33">
  <defs>
    <clipPath id="clip-path">
      <rect id="Retângulo_36645" data-name="Retângulo 36645" width="27.962" height="33" fill="#004a80"/>
    </clipPath>
  </defs>
  <g id="Grupo_14894" data-name="Grupo 14894" transform="translate(0 0)">
    <g id="Grupo_14893" data-name="Grupo 14893" transform="translate(0 0)" clip-path="url(#clip-path)">
      <path id="Caminho_39986" data-name="Caminho 39986" d="M16.024,3.532v.706H18.2V3.532A3.537,3.537,0,0,0,14.667,0H3.532A3.537,3.537,0,0,0,0,3.532V32.889c0,.039.01.074.012.112H2.2c0-.039-.023-.072-.023-.112V3.532A1.36,1.36,0,0,1,3.532,2.175H14.667a1.359,1.359,0,0,1,1.358,1.358" transform="translate(0 0)" fill="#004a80"/>
      <path id="Caminho_39987" data-name="Caminho 39987" d="M22.551,7.246V2.928H8.025V7.246H4.833V8.694h20.96V7.246ZM9.474,4.377H21.1V7.246H9.474Z" transform="translate(2.169 1.315)" fill="#004a80"/>
      <path id="Caminho_39988" data-name="Caminho 39988" d="M8.521,9.242a.8.8,0,1,0,.8.8.8.8,0,0,0-.8-.8" transform="translate(3.465 4.149)" fill="#004a80"/>
      <path id="Caminho_39989" data-name="Caminho 39989" d="M12.194,9.242a.8.8,0,1,0,.8.8.8.8,0,0,0-.8-.8" transform="translate(5.114 4.149)" fill="#004a80"/>
      <path id="Caminho_39990" data-name="Caminho 39990" d="M16.107,9.242a.8.8,0,1,0,.8.8.8.8,0,0,0-.8-.8" transform="translate(6.87 4.149)" fill="#004a80"/>
      <path id="Caminho_39991" data-name="Caminho 39991" d="M8.521,12.187a.8.8,0,1,0,.8.8.8.8,0,0,0-.8-.8" transform="translate(3.465 5.47)" fill="#004a80"/>
      <path id="Caminho_39992" data-name="Caminho 39992" d="M12.194,12.187a.8.8,0,1,0,.8.8.8.8,0,0,0-.8-.8" transform="translate(5.114 5.47)" fill="#004a80"/>
      <path id="Caminho_39993" data-name="Caminho 39993" d="M16.107,12.187a.8.8,0,1,0,.8.8.8.8,0,0,0-.8-.8" transform="translate(6.87 5.47)" fill="#004a80"/>
      <path id="Caminho_39994" data-name="Caminho 39994" d="M8.521,15.131a.8.8,0,1,0,.8.8.8.8,0,0,0-.8-.8" transform="translate(3.465 6.792)" fill="#004a80"/>
      <path id="Caminho_39995" data-name="Caminho 39995" d="M12.194,15.131a.8.8,0,1,0,.8.8.8.8,0,0,0-.8-.8" transform="translate(5.114 6.792)" fill="#004a80"/>
      <path id="Caminho_39996" data-name="Caminho 39996" d="M16.107,15.131a.8.8,0,1,0,.8.8.8.8,0,0,0-.8-.8" transform="translate(6.87 6.792)" fill="#004a80"/>
      <path id="Caminho_39997" data-name="Caminho 39997" d="M8.521,18.076a.8.8,0,1,0,.8.8.8.8,0,0,0-.8-.8" transform="translate(3.465 8.114)" fill="#004a80"/>
      <path id="Caminho_39998" data-name="Caminho 39998" d="M12.194,18.076a.8.8,0,1,0,.8.8.8.8,0,0,0-.8-.8" transform="translate(5.114 8.114)" fill="#004a80"/>
      <path id="Caminho_39999" data-name="Caminho 39999" d="M16.107,18.076a.8.8,0,1,0,.8.8.8.8,0,0,0-.8-.8" transform="translate(6.87 8.114)" fill="#004a80"/>
      <path id="Caminho_40000" data-name="Caminho 40000" d="M8.521,21.021a.8.8,0,1,0,.8.8.8.8,0,0,0-.8-.8" transform="translate(3.465 9.435)" fill="#004a80"/>
      <path id="Caminho_40001" data-name="Caminho 40001" d="M12.194,21.021a.8.8,0,1,0,.8.8.8.8,0,0,0-.8-.8" transform="translate(5.114 9.435)" fill="#004a80"/>
      <path id="Caminho_40002" data-name="Caminho 40002" d="M16.107,21.021a.8.8,0,1,0,.8.8.8.8,0,0,0-.8-.8" transform="translate(6.87 9.435)" fill="#004a80"/>
    </g>
  </g>
</svg>
