<svg xmlns="http://www.w3.org/2000/svg" width="31.5" height="29.412" viewBox="0 0 31.5 29.412">
  <g id="Grupo_14866" data-name="Grupo 14866" transform="translate(-602.277 -1431.227)">
    <path id="Caminho_37193" data-name="Caminho 37193" d="M1.25,28.323H-.25V-.213L.463-.249A3.976,3.976,0,0,1,3.235,1.059a11.424,11.424,0,0,1,2.741,5.2A42.656,42.656,0,0,1,7.145,17.966l-.01.74H1.25Zm0-11.117h4.4a40.269,40.269,0,0,0-1.08-10.4A10.394,10.394,0,0,0,2.28,2.223,3.777,3.777,0,0,0,1.25,1.46Z" transform="translate(602.527 1431.477)" fill="#004a80"/>
    <path id="Caminho_37194" data-name="Caminho 37194" d="M11.284,25.64a4.459,4.459,0,0,1-3.535-1.869,6.986,6.986,0,0,1-1.375-4.266A6.986,6.986,0,0,1,7.749,15.24a4.459,4.459,0,0,1,3.535-1.869,4.461,4.461,0,0,1,3.536,1.868A6.985,6.985,0,0,1,16.2,19.505a6.985,6.985,0,0,1-1.375,4.266A4.461,4.461,0,0,1,11.284,25.64Zm0-10.769a3,3,0,0,0-2.348,1.286,5.483,5.483,0,0,0-1.062,3.349,5.483,5.483,0,0,0,1.062,3.349,3,3,0,0,0,2.348,1.286,3,3,0,0,0,2.349-1.286A5.482,5.482,0,0,0,14.7,19.505a5.482,5.482,0,0,0-1.062-3.349A3,3,0,0,0,11.284,14.871Z" transform="translate(605.645 1434.999)" fill="#004a80"/>
    <path id="Caminho_37195" data-name="Caminho 37195" d="M11.284,13.371a4.461,4.461,0,0,1,3.536,1.868A6.985,6.985,0,0,1,16.2,19.505a6.985,6.985,0,0,1-1.375,4.266,4.461,4.461,0,0,1-3.536,1.868,4.459,4.459,0,0,1-3.535-1.869,6.986,6.986,0,0,1-1.375-4.266A6.986,6.986,0,0,1,7.749,15.24,4.459,4.459,0,0,1,11.284,13.371Zm0,10.769a3,3,0,0,0,2.349-1.286A5.482,5.482,0,0,0,14.7,19.505a5.482,5.482,0,0,0-1.062-3.349,3,3,0,0,0-2.349-1.286,3,3,0,0,0-2.348,1.286,5.483,5.483,0,0,0-1.062,3.349,5.483,5.483,0,0,0,1.062,3.349A3,3,0,0,0,11.284,24.14Z" transform="translate(605.645 1434.999)" fill="#004a80"/>
    <path id="Linha_2" data-name="Linha 2" d="M.75,17.353H-.75V0H.75Z" transform="translate(616.976 1431.889)" fill="#004a80"/>
    <path id="Linha_3" data-name="Linha 3" d="M.75,17.353H-.75V0H.75Z" transform="translate(616.976 1431.889)" fill="#004a80"/>
    <path id="Linha_4" data-name="Linha 4" d="M.75,27.9H-.75V0H.75Z" transform="translate(628.046 1431.939)" fill="#004a80"/>
    <path id="Linha_5" data-name="Linha 5" d="M.75,27.9H-.75V0H.75Z" transform="translate(628.046 1431.939)" fill="#004a80"/>
    <path id="Caminho_37196" data-name="Caminho 37196" d="M18.927,17.88c-1.488,0-2.944-1.337-4.1-3.766A17.483,17.483,0,0,1,13.2,6.958a8.717,8.717,0,0,1,1.252-4.883A5.142,5.142,0,0,1,18.927-.157a5.142,5.142,0,0,1,4.478,2.233,8.717,8.717,0,0,1,1.252,4.883,17.483,17.483,0,0,1-1.629,7.156C21.871,16.543,20.415,17.88,18.927,17.88Zm0-16.537a3.614,3.614,0,0,0-3.236,1.574A7.261,7.261,0,0,0,14.7,6.958a15.908,15.908,0,0,0,1.483,6.511c.855,1.8,1.908,2.911,2.747,2.911s1.892-1.115,2.747-2.911a15.908,15.908,0,0,0,1.483-6.511,7.261,7.261,0,0,0-.994-4.041A3.614,3.614,0,0,0,18.927,1.343Z" transform="translate(609.12 1431.502)" fill="#004a80"/>
  </g>
</svg>
