<svg xmlns="http://www.w3.org/2000/svg" width="30" height="30" viewBox="0 0 30 30">
  <g id="Grupo_14868" data-name="Grupo 14868" transform="translate(-1261 -1423.079)">
    <path id="Caminho_37215" data-name="Caminho 37215" d="M3.676,7.2H0v1.43H4.139A13.675,13.675,0,0,1,3.676,7.2" transform="translate(1261 1426.034)" fill="#004a80"/>
    <path id="Caminho_37216" data-name="Caminho 37216" d="M18.828,7.2a13.674,13.674,0,0,1-.463,1.43h3.68V7.2Z" transform="translate(1268.955 1426.034)" fill="#004a80"/>
    <rect id="Retângulo_36622" data-name="Retângulo 36622" width="11.436" height="1.429" transform="translate(1279.394 1433.442) rotate(-64.973)" fill="#004a80"/>
    <rect id="Retângulo_36623" data-name="Retângulo 36623" width="11.436" height="1.429" transform="translate(1274.257 1433.442) rotate(-64.973)" fill="#004a80"/>
    <rect id="Retângulo_36624" data-name="Retângulo 36624" width="11.436" height="1.429" transform="translate(1269.293 1433.442) rotate(-64.973)" fill="#004a80"/>
    <path id="Caminho_37217" data-name="Caminho 37217" d="M21.234,4.25l-.666,1.425,5.21.041c-.387,6.365-5.32,11.431-11.293,11.431-5.992,0-10.928-5.084-11.294-11.472L8.9,5.65l.671-1.433-7.836.034,0,.715c.027,7.506,5.749,13.611,12.75,13.611,6.98,0,12.7-6.085,12.75-13.565l.006-.715Z" transform="translate(1261.744 1424.743)" fill="#004a80"/>
    <line id="Linha_10" data-name="Linha 10" x1="4.98" y2="11.14" transform="translate(1266.425 1441.554)" fill="#1d1d1b"/>
    <rect id="Retângulo_36625" data-name="Retângulo 36625" width="12.202" height="1.428" transform="translate(1265.77 1452.402) rotate(-65.898)" fill="#004a80"/>
    <line id="Linha_11" data-name="Linha 11" x2="4.356" y2="11.399" transform="translate(1280.814 1441.425)" fill="#1d1d1b"/>
    <rect id="Retângulo_36626" data-name="Retângulo 36626" width="1.43" height="12.203" transform="translate(1280.148 1441.68) rotate(-20.915)" fill="#004a80"/>
    <line id="Linha_12" data-name="Linha 12" y2="10.363" transform="translate(1275.999 1442.332)" fill="#1d1d1b"/>
    <rect id="Retângulo_36627" data-name="Retângulo 36627" width="1.43" height="10.364" transform="translate(1275.286 1442.331)" fill="#004a80"/>
    <line id="Linha_13" data-name="Linha 13" x2="14.364" transform="translate(1268.759 1447.513)" fill="#1d1d1b"/>
    <rect id="Retângulo_36628" data-name="Retângulo 36628" width="14.364" height="2.145" transform="translate(1268.759 1446.44)" fill="#004a80"/>
  </g>
</svg>
