<svg xmlns="http://www.w3.org/2000/svg" width="30" height="25.659" viewBox="0 0 30 25.659">
  <g id="Grupo_14872" data-name="Grupo 14872" transform="translate(-704.632 -1432.162)">
    <rect id="Retângulo_36619" data-name="Retângulo 36619" width="29" height="20.272" rx="1.597" transform="translate(705.132 1432.662)" fill="none" stroke="#004a80" stroke-miterlimit="10" stroke-width="1"/>
    <path id="Caminho_37204" data-name="Caminho 37204" d="M22.133,4.3a3.754,3.754,0,0,0,1.152-.2V2.728A2.228,2.228,0,0,0,21.057.5H18.335A3.8,3.8,0,0,0,22.133,4.3Z" transform="translate(710.846 1432.162)" fill="none" stroke="#004a80" stroke-miterlimit="10" stroke-width="1"/>
    <path id="Caminho_37205" data-name="Caminho 37205" d="M12.122,4.3A3.571,3.571,0,0,0,15.41.5H8.835A3.571,3.571,0,0,0,12.122,4.3Z" transform="translate(707.509 1432.162)" fill="none" stroke="#004a80" stroke-miterlimit="10" stroke-width="1"/>
    <path id="Caminho_37206" data-name="Caminho 37206" d="M.5,2.728V3.963A3.761,3.761,0,0,0,2.045,4.3,3.8,3.8,0,0,0,5.842.5H2.728A2.228,2.228,0,0,0,.5,2.728Z" transform="translate(704.632 1432.162)" fill="none" stroke="#004a80" stroke-miterlimit="10" stroke-width="1"/>
    <path id="Caminho_37207" data-name="Caminho 37207" d="M23.284,14.265V12.892a3.74,3.74,0,0,0-1.152-.2,3.8,3.8,0,0,0-3.8,3.8h2.722A2.228,2.228,0,0,0,23.284,14.265Z" transform="translate(710.846 1436.559)" fill="none" stroke="#004a80" stroke-miterlimit="10" stroke-width="1"/>
    <path id="Caminho_37208" data-name="Caminho 37208" d="M12.122,12.695a3.571,3.571,0,0,0-3.287,3.8H15.41A3.571,3.571,0,0,0,12.122,12.695Z" transform="translate(707.509 1436.559)" fill="none" stroke="#004a80" stroke-miterlimit="10" stroke-width="1"/>
    <path id="Caminho_37209" data-name="Caminho 37209" d="M2.045,12.695A3.761,3.761,0,0,0,.5,13.03v1.235a2.228,2.228,0,0,0,2.228,2.228H5.842A3.8,3.8,0,0,0,2.045,12.695Z" transform="translate(704.632 1436.559)" fill="none" stroke="#004a80" stroke-miterlimit="10" stroke-width="1"/>
    <path id="Caminho_37210" data-name="Caminho 37210" d="M13.5,5.926a.59.59,0,1,1-.59-.59.59.59,0,0,1,.59.59" transform="translate(708.822 1433.924)" fill="none" stroke="#004a80" stroke-width="1"/>
    <circle id="Elipse_11" data-name="Elipse 11" cx="0.59" cy="0.59" r="0.59" transform="translate(721.141 1439.259)" fill="none" stroke="#004a80" stroke-miterlimit="10" stroke-width="1.5"/>
    <line id="Linha_8" data-name="Linha 8" x2="5.056" y2="15.135" transform="translate(722.722 1442.527)" fill="#1d1d1b" stroke="#004a80" stroke-width="1"/>
    <line id="Linha_9" data-name="Linha 9" x2="5.056" y2="15.135" transform="translate(722.722 1442.527)" fill="none" stroke="#004a80" stroke-miterlimit="10" stroke-width="1"/>
  </g>
</svg>
