<svg xmlns="http://www.w3.org/2000/svg" xmlns:xlink="http://www.w3.org/1999/xlink" width="15.949" height="20.513" viewBox="0 0 15.949 20.513">
  <defs>
    <clipPath id="clip-path">
      <rect id="Retângulo_36640" data-name="Retângulo 36640" width="15.949" height="20.513" fill="#004a80"/>
    </clipPath>
  </defs>
  <g id="Grupo_14886" data-name="Grupo 14886" transform="translate(0 0)">
    <g id="Grupo_14885" data-name="Grupo 14885" transform="translate(0 0)" clip-path="url(#clip-path)">
      <path id="Caminho_39981" data-name="Caminho 39981" d="M7.974,20.513h0a.709.709,0,0,1-.522-.228C7.148,19.959,0,12.216,0,7.974a7.974,7.974,0,0,1,15.949,0c0,4.242-7.148,11.984-7.452,12.311a.71.71,0,0,1-.522.228m0-19.087A6.555,6.555,0,0,0,1.427,7.974c0,2.816,4.327,8.266,6.548,10.764,2.221-2.5,6.548-7.949,6.548-10.764A6.555,6.555,0,0,0,7.974,1.427" transform="translate(0 0)" fill="#004a80"/>
      <path id="Caminho_39982" data-name="Caminho 39982" d="M11.651,14.6a3.59,3.59,0,1,1,3.59-3.59,3.594,3.594,0,0,1-3.59,3.59m0-5.754a2.164,2.164,0,1,0,2.164,2.164,2.166,2.166,0,0,0-2.164-2.164" transform="translate(-3.677 -3.385)" fill="#004a80"/>
    </g>
  </g>
</svg>
