<svg xmlns="http://www.w3.org/2000/svg" width="30" height="32" viewBox="0 0 30 32">
  <g id="Grupo_14864" data-name="Grupo 14864" transform="translate(-429.665 -1450.576)">
    <path id="Caminho_37186" data-name="Caminho 37186" d="M1.521,22.282a1.776,1.776,0,0,1,3.552,0,.743.743,0,0,0,.082.336,3.3,3.3,0,0,0,6.537-.183.761.761,0,0,0,.016-.154,1.776,1.776,0,0,1,3.552,0,.743.743,0,0,0,.082.336,3.3,3.3,0,0,0,6.537-.183.761.761,0,0,0,.017-.154,1.775,1.775,0,0,1,3.551,0,.761.761,0,0,0,1.521,0,3.3,3.3,0,0,0-6.579-.311.761.761,0,0,0-.016.154,1.775,1.775,0,0,1-3.551,0,.749.749,0,0,0-.082-.335,3.3,3.3,0,0,0-6.538.182.761.761,0,0,0-.016.154,1.775,1.775,0,0,1-3.551,0,.749.749,0,0,0-.082-.335A3.3,3.3,0,0,0,0,22.282a.758.758,0,0,0,.761.756.777.777,0,0,0,.093-.009.756.756,0,0,0,.667-.747" transform="translate(429.665 1450.103)" fill="#004a80"/>
    <path id="Caminho_37187" data-name="Caminho 37187" d="M24,3.273V6.2H16.1V3.273a1.932,1.932,0,0,1,3.85,0,.755.755,0,1,0,1.51,0,3.44,3.44,0,0,0-6.871,0V15.449a.756.756,0,1,0,1.511,0v-2.6H24v2.6a.755.755,0,1,0,1.51,0V3.273a1.932,1.932,0,0,1,3.85,0,.756.756,0,0,0,1.511,0,3.44,3.44,0,0,0-6.871,0M16.1,7.711H24v3.626H16.1Z" transform="translate(428.791 1450.577)" fill="#004a80"/>
    <path id="Caminho_37188" data-name="Caminho 37188" d="M23.67,27.055a3.292,3.292,0,0,0-3.282,2.961.843.843,0,0,0-.015.154,1.775,1.775,0,0,1-3.551,0,.74.74,0,0,0-.083-.335,3.3,3.3,0,0,0-6.538.182.843.843,0,0,0-.016.154,1.775,1.775,0,0,1-3.551,0,.739.739,0,0,0-.082-.335,3.3,3.3,0,0,0-5.7-1.7A3.243,3.243,0,0,0,0,30.327a.759.759,0,0,0,.761.756.791.791,0,0,0,.094-.009.755.755,0,0,0,.666-.747,1.776,1.776,0,0,1,3.552,0,.743.743,0,0,0,.082.336,3.3,3.3,0,0,0,6.538-.183.754.754,0,0,0,.016-.154,1.775,1.775,0,0,1,3.551,0,.744.744,0,0,0,.083.336,3.3,3.3,0,0,0,6.537-.183.754.754,0,0,0,.016-.154,1.775,1.775,0,0,1,3.551,0,.761.761,0,0,0,1.522,0,3.244,3.244,0,0,0-.762-2.088,3.3,3.3,0,0,0-2.536-1.184" transform="translate(429.665 1449.133)" fill="#004a80"/>
  </g>
</svg>
