<svg xmlns="http://www.w3.org/2000/svg" xmlns:xlink="http://www.w3.org/1999/xlink" width="26.634" height="22.896" viewBox="0 0 26.634 22.896">
  <defs>
    <clipPath id="clip-path">
      <rect id="Retângulo_36639" data-name="Retângulo 36639" width="26.634" height="22.896" fill="#004a80"/>
    </clipPath>
  </defs>
  <g id="Grupo_14884" data-name="Grupo 14884" transform="translate(0 0)">
    <g id="Grupo_14883" data-name="Grupo 14883" transform="translate(0 0)" clip-path="url(#clip-path)">
      <path id="Caminho_39978" data-name="Caminho 39978" d="M12.162,16.85v5.437a3.174,3.174,0,0,0,3.169,3.17h5.494a3.174,3.174,0,0,0,3.17-3.17V16.958l-.072-.064,2.451,2.143a.713.713,0,1,0,.938-1.073L18.547,10.3a.712.712,0,0,0-.934,0L8.674,17.959a.714.714,0,1,0,.93,1.083m13.2,3.245a1.983,1.983,0,0,1-1.98,1.98H15.331a1.983,1.983,0,0,1-1.979-1.98V15.83l4.722-4.047L22.8,15.918Z" transform="translate(-2.433 -3.722)" fill="#004a80"/>
      <path id="Caminho_39979" data-name="Caminho 39979" d="M24.355,2.615,22.3.217a.622.622,0,1,0-.944.809l1.156,1.349H10.394l1.175-1.345a.621.621,0,1,0-.934-.818L8.578,2.564a.622.622,0,0,0,0,.813l2.056,2.4a.621.621,0,0,0,.943-.809L10.416,3.618h12.12L21.361,4.962a.621.621,0,0,0,.935.818l2.055-2.352a.622.622,0,0,0,0-.813" transform="translate(-0.907 0)" fill="#004a80"/>
      <path id="Caminho_39980" data-name="Caminho 39980" d="M3.377,24.157l2.4-2.055a.622.622,0,0,0-.809-.944L3.618,22.315V10.2l1.345,1.175a.621.621,0,1,0,.818-.934L3.429,8.38a.622.622,0,0,0-.813,0l-2.4,2.056a.621.621,0,0,0,.809.943l1.349-1.156v12.12L1.031,21.163a.621.621,0,0,0-.818.935l2.352,2.055a.622.622,0,0,0,.813,0" transform="translate(0 -2.571)" fill="#004a80"/>
    </g>
  </g>
</svg>
