<svg xmlns="http://www.w3.org/2000/svg" width="30" height="28" viewBox="0 0 30 28">
  <g id="Grupo_14874" data-name="Grupo 14874" transform="translate(-1194.665 -1433.31)">
    <path id="Caminho_37189" data-name="Caminho 37189" d="M30,22.956V.648A.65.65,0,0,0,29.348,0H.652A.65.65,0,0,0,0,.648V22.956a.65.65,0,0,0,.652.649h28.7A.65.65,0,0,0,30,22.956m-1.3-.648H1.3V1.3H28.7Z" transform="translate(1194.665 1433.31)" fill="#004a80"/>
    <path id="Caminho_37190" data-name="Caminho 37190" d="M4.777,19.335H26.533a.653.653,0,0,0,.651-.656V3.883a.653.653,0,0,0-.651-.657H4.777a.653.653,0,0,0-.651.657v14.8a.653.653,0,0,0,.651.656m.651-14.8H25.882V18.022H5.428Z" transform="translate(1194.01 1432.798)" fill="#004a80"/>
    <path id="Caminho_37191" data-name="Caminho 37191" d="M17.684,22.983A1.412,1.412,0,1,0,19.1,24.4a1.414,1.414,0,0,0-1.412-1.413m0,2.036a.624.624,0,1,1,.623-.623.624.624,0,0,1-.623.623" transform="translate(1191.981 1429.438)" fill="#004a80"/>
    <path id="Caminho_37192" data-name="Caminho 37192" d="M23.785,32.952a.653.653,0,0,0,.649-.656V30a.652.652,0,0,0-.649-.656H8.8A.651.651,0,0,0,8.154,30V32.3a.652.652,0,0,0,.648.656ZM9.451,30.658H23.137v.981H9.451Z" transform="translate(1193.371 1428.358)" fill="#004a80"/>
  </g>
</svg>
