<svg id="Grupo_12" data-name="Grupo 12" xmlns="http://www.w3.org/2000/svg" xmlns:xlink="http://www.w3.org/1999/xlink" width="76.359" height="20.591" viewBox="0 0 76.359 20.591">
  <defs>
    <clipPath id="clip-path">
      <rect id="Retângulo_36" data-name="Retângulo 36" width="76.359" height="20.591" fill="#004a80"/>
    </clipPath>
  </defs>
  <g id="Grupo_11" data-name="Grupo 11" transform="translate(0)" clip-path="url(#clip-path)">
    <path id="Caminho_46" data-name="Caminho 46" d="M7.889,6.106A3.644,3.644,0,0,0,6.4.233c-.016-.007-.034-.01-.05-.016a3.705,3.705,0,0,0-.532-.15A3.549,3.549,0,0,0,5.168,0L5.148,0h0l-.02,0a3.536,3.536,0,0,0-.647.065,3.652,3.652,0,0,0-.532.15c-.017.007-.035.01-.051.016A3.644,3.644,0,0,0,2.4,6.106C.91,7.336.232,8.917,0,11.705,0,13,0,14.388,1.591,14.661l.627,3.133a3.765,3.765,0,0,0,1.726,2.475c.039.021.077.044.117.063.078.038.156.071.236.1s.147.049.221.068.123.035.185.046a2.494,2.494,0,0,0,.434.043h.019a2.492,2.492,0,0,0,.433-.043c.063-.012.124-.03.185-.046s.149-.041.221-.068a2.55,2.55,0,0,0,.236-.1c.04-.019.079-.042.118-.063a3.762,3.762,0,0,0,1.725-2.475L8.7,14.661C10.3,14.388,10.3,13,10.293,11.705c-.232-2.789-.909-4.37-2.4-5.6M6.543,5.371a2.166,2.166,0,0,1-.219.165c-.043.027-.09.049-.135.074a2.145,2.145,0,0,1-.221.111,2.067,2.067,0,0,1-.2.063c-.065.018-.126.043-.193.056a2.21,2.21,0,0,1-.4.04c-.01,0-.018,0-.028,0s-.018,0-.028,0a2.211,2.211,0,0,1-.4-.04c-.067-.013-.129-.038-.193-.056s-.137-.037-.2-.063A2.222,2.222,0,0,1,4.1,5.61c-.045-.024-.092-.046-.135-.074a2.166,2.166,0,0,1-.219-.165,2.16,2.16,0,0,1-.657-2.487c.02-.052.044-.1.068-.153a2.252,2.252,0,0,1,.108-.2c.028-.046.056-.092.088-.136a2.284,2.284,0,0,1,.165-.2c.027-.03.051-.063.08-.091a2.227,2.227,0,0,1,.284-.235c.037-.025.076-.046.115-.069a2.086,2.086,0,0,1,.226-.123c.044-.021.09-.039.136-.057a2.254,2.254,0,0,1,.251-.079c.044-.01.087-.024.131-.032a2.254,2.254,0,0,1,.395-.04h.015a2.246,2.246,0,0,1,.395.04c.045.008.088.021.131.032a2.254,2.254,0,0,1,.251.079c.046.018.092.036.137.057a2.147,2.147,0,0,1,.225.123c.038.023.078.044.115.069a2.227,2.227,0,0,1,.284.235c.029.029.053.061.08.091a2.16,2.16,0,0,1,.165.2c.032.044.06.09.088.136a2.075,2.075,0,0,1,.108.2c.024.051.048.1.068.153a2.162,2.162,0,0,1-.658,2.487m1.547,7.866a.735.735,0,0,0-.721.591l-.728,3.643c-.25,1-.835,1.647-1.49,1.649H5.143c-.655,0-1.24-.649-1.49-1.649l-.727-3.643a.736.736,0,0,0-.721-.591c-.735,0-.735,0-.735-1.471C1.7,9.059,2.35,8.032,3.4,7.193a.735.735,0,0,0,.129-.132c.016-.023.035-.046.053-.068.032.015.067.027.1.041v.009c.087.038.176.07.266.1h0c.114.04.231.074.349.1.015,0,.029.009.043.012.1.024.212.043.32.057.028,0,.054.01.082.013a3.509,3.509,0,0,0,.385.023h.039a3.509,3.509,0,0,0,.385-.023c.028,0,.054-.01.082-.013.108-.015.215-.033.321-.057L6,7.247c.119-.029.235-.063.35-.1h0c.09-.032.179-.063.266-.1V7.033c.033-.014.067-.026.1-.041.018.023.037.046.054.068a.708.708,0,0,0,.129.132c1.049.839,1.7,1.866,1.93,4.573,0,1.471,0,1.471-.735,1.471" transform="translate(0)" fill="#004a80"/>
    <path id="Caminho_47" data-name="Caminho 47" d="M15.156,6.106A3.645,3.645,0,0,0,13.665.233c-.017-.007-.035-.01-.051-.015a3.613,3.613,0,0,0-.532-.15A3.479,3.479,0,0,0,12.435,0l-.021,0h0l-.021,0a3.473,3.473,0,0,0-.647.065,3.587,3.587,0,0,0-.532.15c-.017.006-.035.009-.051.015a3.684,3.684,0,0,0-.588.281,3.7,3.7,0,0,1,1.175,1.07c.043-.013.086-.029.131-.04s.086-.024.13-.032a2.192,2.192,0,0,1,.395-.04h.016a2.192,2.192,0,0,1,.395.04c.044.008.087.021.13.032a2.159,2.159,0,0,1,.251.078c.046.018.092.036.137.057a2.158,2.158,0,0,1,.226.123c.038.024.077.044.114.07a2.227,2.227,0,0,1,.284.235c.029.028.053.061.08.091a2.159,2.159,0,0,1,.166.2c.031.044.059.09.088.137a2.231,2.231,0,0,1,.107.2c.024.051.048.1.068.154a2.256,2.256,0,0,1-.877,2.652c-.043.028-.09.049-.135.074a2.15,2.15,0,0,1-.221.112c-.065.026-.134.043-.2.063s-.126.043-.193.056a2.287,2.287,0,0,1-.4.04l-.028,0-.028,0a2.28,2.28,0,0,1-.4-.04c-.066-.013-.129-.037-.193-.056l-.063-.02a3.877,3.877,0,0,1-.254.341,5.839,5.839,0,0,1,1.13,1.237c.071,0,.141-.005.21-.013l.082-.013c.108-.015.215-.033.321-.057l.043-.012c.119-.029.236-.063.35-.1h0c.09-.032.179-.063.266-.1V7.034c.033-.015.068-.026.1-.041l.053.068a.735.735,0,0,0,.129.133c1.049.838,1.7,1.866,1.93,4.573,0,1.471,0,1.471-.736,1.471a.735.735,0,0,0-.721.591l-.727,3.643c-.251,1-.835,1.647-1.491,1.649H12.41a1.294,1.294,0,0,1-1-.583,3.8,3.8,0,0,1-.835,1.246,2.941,2.941,0,0,0,.636.486c.039.022.078.044.118.064.077.037.155.07.235.1s.147.049.221.069.123.034.186.046a2.409,2.409,0,0,0,.433.043h.019a2.409,2.409,0,0,0,.433-.043c.063-.012.124-.029.185-.046s.149-.042.221-.069.159-.063.236-.1c.04-.02.079-.042.118-.064a3.762,3.762,0,0,0,1.725-2.475l.627-3.134c1.594-.272,1.594-1.663,1.591-2.956-.232-2.789-.909-4.37-2.4-5.6" transform="translate(-2.798)" fill="#004a80"/>
    <path id="Caminho_48" data-name="Caminho 48" d="M21.358,6.106A3.645,3.645,0,0,0,19.867.233c-.017-.007-.035-.01-.051-.015a3.613,3.613,0,0,0-.532-.15A3.479,3.479,0,0,0,18.637,0l-.021,0h0l-.021,0a3.473,3.473,0,0,0-.647.065,3.587,3.587,0,0,0-.532.15c-.017.006-.035.009-.051.015a3.684,3.684,0,0,0-.588.281,3.7,3.7,0,0,1,1.175,1.07c.043-.013.086-.029.131-.04s.086-.024.13-.032a2.192,2.192,0,0,1,.395-.04h.016a2.192,2.192,0,0,1,.395.04c.044.008.087.021.13.032a2.159,2.159,0,0,1,.251.078c.046.018.092.036.137.057a2.158,2.158,0,0,1,.226.123c.038.024.077.044.114.07a2.227,2.227,0,0,1,.284.235c.029.028.053.061.08.091a2.158,2.158,0,0,1,.166.2c.031.044.059.09.088.137a2.232,2.232,0,0,1,.107.2c.024.051.048.1.068.154a2.256,2.256,0,0,1-.877,2.652c-.043.028-.09.049-.135.074a2.15,2.15,0,0,1-.221.112c-.065.026-.134.043-.2.063s-.126.043-.193.056a2.287,2.287,0,0,1-.4.04l-.028,0-.028,0a2.28,2.28,0,0,1-.4-.04c-.066-.013-.129-.037-.193-.056l-.063-.02a3.878,3.878,0,0,1-.254.341,5.839,5.839,0,0,1,1.13,1.237c.071,0,.141-.005.21-.013l.082-.013c.108-.015.215-.033.321-.057l.043-.012c.119-.029.236-.063.35-.1h0c.09-.032.179-.063.266-.1V7.034c.033-.015.068-.026.1-.041l.053.068a.735.735,0,0,0,.129.133c1.049.838,1.7,1.866,1.93,4.573,0,1.471,0,1.471-.736,1.471a.735.735,0,0,0-.721.591l-.727,3.643c-.251,1-.835,1.647-1.491,1.649h-.007a1.294,1.294,0,0,1-1-.583,3.8,3.8,0,0,1-.835,1.246,2.941,2.941,0,0,0,.636.486c.039.022.078.044.118.064.077.037.155.07.235.1s.147.049.221.069.123.034.186.046a2.409,2.409,0,0,0,.433.043h.019a2.409,2.409,0,0,0,.433-.043c.063-.012.124-.029.185-.046s.149-.042.221-.069.159-.063.236-.1c.04-.02.079-.042.118-.064a3.762,3.762,0,0,0,1.725-2.475l.627-3.134c1.594-.272,1.594-1.663,1.591-2.956-.232-2.789-.909-4.37-2.4-5.6" transform="translate(-4.439)" fill="#004a80"/>
    <path id="Caminho_49" data-name="Caminho 49" d="M27.575,6.106A3.645,3.645,0,0,0,26.084.233c-.016-.007-.035-.01-.051-.015A3.613,3.613,0,0,0,25.5.068,3.473,3.473,0,0,0,24.854,0l-.021,0h0l-.021,0a3.473,3.473,0,0,0-.647.065,3.587,3.587,0,0,0-.532.15c-.017.006-.035.009-.051.015a3.684,3.684,0,0,0-.588.281,3.7,3.7,0,0,1,1.175,1.07c.043-.013.086-.029.131-.04s.086-.024.13-.032a2.192,2.192,0,0,1,.395-.04h.016a2.185,2.185,0,0,1,.395.04c.044.008.087.021.13.032a2.159,2.159,0,0,1,.251.078c.046.018.092.036.138.057a2.224,2.224,0,0,1,.225.123c.038.024.077.044.114.07a2.177,2.177,0,0,1,.284.235c.029.028.054.061.08.091a2.159,2.159,0,0,1,.166.2c.031.044.059.09.088.137.038.064.074.13.107.2.024.051.048.1.068.154a2.256,2.256,0,0,1-.877,2.652c-.043.028-.09.049-.135.074a2.078,2.078,0,0,1-.221.112c-.065.026-.134.043-.2.063s-.126.043-.193.056a2.287,2.287,0,0,1-.4.04l-.028,0-.028,0a2.28,2.28,0,0,1-.4-.04c-.065-.013-.129-.037-.193-.056-.021-.006-.041-.014-.063-.02a4.022,4.022,0,0,1-.254.341,5.855,5.855,0,0,1,1.13,1.237c.071,0,.141-.005.21-.013l.082-.013c.108-.015.215-.033.321-.057l.043-.012c.119-.029.236-.063.35-.1h0c.09-.032.179-.063.266-.1V7.034c.033-.015.068-.026.1-.041.016.022.036.046.052.068a.764.764,0,0,0,.129.133c1.049.838,1.7,1.866,1.93,4.573,0,1.471,0,1.471-.737,1.471a.735.735,0,0,0-.721.591l-.727,3.643c-.251,1-.835,1.647-1.49,1.649h-.007a1.3,1.3,0,0,1-1-.583,3.792,3.792,0,0,1-.835,1.246,2.941,2.941,0,0,0,.636.486c.039.022.079.044.118.064.077.037.155.07.235.1s.147.049.221.069.123.034.186.046a2.409,2.409,0,0,0,.433.043h.019a2.409,2.409,0,0,0,.433-.043c.063-.012.124-.029.185-.046s.149-.042.221-.069.159-.063.236-.1c.04-.02.079-.042.118-.064a3.76,3.76,0,0,0,1.725-2.475l.627-3.134c1.594-.272,1.594-1.663,1.592-2.956-.233-2.789-.909-4.37-2.4-5.6" transform="translate(-6.084)" fill="#004a80"/>
    <path id="Caminho_50" data-name="Caminho 50" d="M33.777,6.106A3.645,3.645,0,0,0,32.286.233c-.017-.007-.035-.01-.051-.015A3.613,3.613,0,0,0,31.7.068,3.479,3.479,0,0,0,31.056,0l-.021,0h0l-.021,0a3.473,3.473,0,0,0-.647.065,3.587,3.587,0,0,0-.532.15c-.017.006-.035.009-.051.015A3.684,3.684,0,0,0,29.2.514a3.7,3.7,0,0,1,1.175,1.07c.043-.013.086-.029.131-.04s.086-.024.13-.032a2.192,2.192,0,0,1,.395-.04h.016a2.192,2.192,0,0,1,.395.04c.044.008.087.021.13.032a2.159,2.159,0,0,1,.251.078c.046.018.092.036.137.057a2.159,2.159,0,0,1,.226.123c.038.024.077.044.114.07a2.227,2.227,0,0,1,.284.235c.029.028.053.061.08.091a2.159,2.159,0,0,1,.166.2c.031.044.059.09.088.137a2.233,2.233,0,0,1,.107.2c.024.051.048.1.068.154a2.256,2.256,0,0,1-.877,2.652c-.043.028-.09.049-.135.074a2.15,2.15,0,0,1-.221.112c-.065.026-.134.043-.2.063s-.126.043-.193.056a2.287,2.287,0,0,1-.4.04l-.028,0-.028,0a2.28,2.28,0,0,1-.4-.04c-.066-.013-.129-.037-.193-.056l-.063-.02a3.877,3.877,0,0,1-.254.341,5.839,5.839,0,0,1,1.13,1.237c.071,0,.141-.005.21-.013l.082-.013c.108-.015.215-.033.321-.057l.043-.012c.119-.029.236-.063.35-.1h0c.09-.032.179-.063.266-.1V7.034c.033-.015.068-.026.1-.041l.053.068a.735.735,0,0,0,.129.133c1.049.838,1.7,1.866,1.93,4.573,0,1.471,0,1.471-.736,1.471a.735.735,0,0,0-.721.591l-.727,3.643c-.251,1-.835,1.647-1.491,1.649h-.007a1.294,1.294,0,0,1-1-.583,3.8,3.8,0,0,1-.835,1.246,2.941,2.941,0,0,0,.636.486c.039.022.078.044.118.064.077.037.155.07.235.1s.147.049.221.069.123.034.186.046a2.409,2.409,0,0,0,.433.043h.019a2.409,2.409,0,0,0,.433-.043c.063-.012.124-.029.185-.046s.149-.042.221-.069.159-.063.236-.1c.04-.02.079-.042.118-.064a3.762,3.762,0,0,0,1.725-2.475l.627-3.134c1.594-.272,1.594-1.663,1.591-2.956-.232-2.789-.909-4.37-2.4-5.6" transform="translate(-7.725)" fill="#004a80"/>
    <path id="Caminho_51" data-name="Caminho 51" d="M39.995,6.106A3.645,3.645,0,0,0,38.5.233c-.017-.007-.035-.01-.051-.015a3.613,3.613,0,0,0-.532-.15A3.479,3.479,0,0,0,37.274,0l-.021,0h0l-.021,0a3.473,3.473,0,0,0-.647.065,3.587,3.587,0,0,0-.532.15c-.018.006-.035.009-.051.015a3.684,3.684,0,0,0-.588.281,3.7,3.7,0,0,1,1.175,1.07c.043-.013.086-.029.131-.04s.086-.024.13-.032a2.192,2.192,0,0,1,.395-.04h.016a2.192,2.192,0,0,1,.395.04c.044.008.087.021.13.032a2.1,2.1,0,0,1,.25.078c.047.018.092.036.138.057A2.158,2.158,0,0,1,38.4,1.8c.038.024.077.044.114.07a2.227,2.227,0,0,1,.284.235c.029.028.053.061.08.091a2.158,2.158,0,0,1,.166.2c.031.044.059.09.088.137a2.231,2.231,0,0,1,.107.2c.024.051.048.1.068.154a2.256,2.256,0,0,1-.877,2.652c-.043.028-.09.049-.135.074a2.15,2.15,0,0,1-.221.112c-.065.026-.134.043-.2.063s-.126.043-.193.056a2.288,2.288,0,0,1-.4.04l-.027,0-.028,0a2.28,2.28,0,0,1-.4-.04c-.066-.013-.129-.037-.193-.056l-.063-.02a3.877,3.877,0,0,1-.254.341,5.839,5.839,0,0,1,1.13,1.237c.071,0,.141-.005.21-.013l.082-.013c.108-.015.215-.033.321-.057l.043-.012c.119-.029.236-.063.35-.1h0c.09-.032.179-.063.266-.1V7.034c.033-.015.068-.026.1-.041l.053.068A.735.735,0,0,0,39,7.194c1.049.838,1.7,1.866,1.93,4.573,0,1.471,0,1.471-.736,1.471a.735.735,0,0,0-.721.591l-.727,3.643c-.252,1-.835,1.647-1.491,1.649h-.007a1.294,1.294,0,0,1-1-.583,3.8,3.8,0,0,1-.835,1.246,2.941,2.941,0,0,0,.636.486c.039.022.078.044.118.064.077.037.155.07.235.1s.148.049.222.069.123.034.186.046a2.409,2.409,0,0,0,.433.043h.019a2.409,2.409,0,0,0,.433-.043c.063-.012.124-.029.185-.046s.149-.042.221-.069.159-.063.236-.1c.04-.02.079-.042.118-.064a3.762,3.762,0,0,0,1.725-2.475l.627-3.134C42.4,14.389,42.4,13,42.4,11.705c-.232-2.789-.909-4.37-2.4-5.6" transform="translate(-9.37)" fill="#004a80"/>
    <path id="Caminho_52" data-name="Caminho 52" d="M46.2,6.106A3.645,3.645,0,0,0,44.7.233c-.017-.007-.035-.01-.051-.015a3.613,3.613,0,0,0-.532-.15A3.479,3.479,0,0,0,43.475,0l-.021,0h0l-.021,0a3.473,3.473,0,0,0-.647.065,3.587,3.587,0,0,0-.532.15c-.017.006-.035.009-.051.015a3.684,3.684,0,0,0-.588.281,3.7,3.7,0,0,1,1.175,1.07c.043-.013.086-.029.131-.04s.086-.024.13-.032a2.192,2.192,0,0,1,.395-.04h.016a2.192,2.192,0,0,1,.395.04c.044.008.087.021.13.032a2.159,2.159,0,0,1,.251.078c.046.018.092.036.137.057A2.158,2.158,0,0,1,44.6,1.8c.038.024.077.044.114.07A2.226,2.226,0,0,1,45,2.105c.029.028.053.061.08.091a2.159,2.159,0,0,1,.166.2c.031.044.059.09.088.137a2.231,2.231,0,0,1,.107.2c.024.051.048.1.068.154a2.256,2.256,0,0,1-.877,2.652c-.043.028-.09.049-.135.074a2.15,2.15,0,0,1-.221.112c-.065.026-.134.043-.2.063s-.126.043-.193.056a2.287,2.287,0,0,1-.4.04l-.028,0-.028,0a2.28,2.28,0,0,1-.4-.04c-.066-.013-.129-.037-.193-.056l-.063-.02a3.878,3.878,0,0,1-.254.341,5.839,5.839,0,0,1,1.13,1.237c.071,0,.141-.005.21-.013l.082-.013c.108-.015.215-.033.321-.057l.043-.012c.119-.029.236-.063.35-.1h0c.09-.032.179-.063.266-.1V7.034c.033-.015.068-.026.1-.041l.053.068a.735.735,0,0,0,.129.133c1.049.838,1.7,1.866,1.93,4.573,0,1.471,0,1.471-.736,1.471a.735.735,0,0,0-.721.591l-.727,3.643c-.251,1-.835,1.647-1.491,1.649H43.45a1.294,1.294,0,0,1-1-.583,3.8,3.8,0,0,1-.835,1.246,2.941,2.941,0,0,0,.636.486c.039.022.078.044.118.064.077.037.155.07.235.1s.147.049.221.069.123.034.186.046a2.409,2.409,0,0,0,.433.043h.019a2.409,2.409,0,0,0,.433-.043c.063-.012.124-.029.185-.046s.149-.042.221-.069.159-.063.236-.1c.04-.02.079-.042.118-.064a3.762,3.762,0,0,0,1.725-2.475l.627-3.134C48.6,14.389,48.6,13,48.6,11.705c-.232-2.789-.909-4.37-2.4-5.6" transform="translate(-11.011)" fill="#004a80"/>
    <path id="Caminho_53" data-name="Caminho 53" d="M52.414,6.106A3.645,3.645,0,0,0,50.923.233c-.017-.007-.035-.01-.051-.015a3.613,3.613,0,0,0-.532-.15A3.479,3.479,0,0,0,49.693,0l-.021,0h0L49.65,0A3.473,3.473,0,0,0,49,.068a3.587,3.587,0,0,0-.532.15c-.017.006-.035.009-.051.015a3.685,3.685,0,0,0-.588.281,3.7,3.7,0,0,1,1.175,1.07c.043-.013.086-.029.131-.04s.086-.024.13-.032a2.192,2.192,0,0,1,.395-.04h.016a2.192,2.192,0,0,1,.395.04c.044.008.087.021.13.032a2.159,2.159,0,0,1,.251.078c.046.018.092.036.137.057a2.158,2.158,0,0,1,.226.123c.038.024.077.044.114.07a2.227,2.227,0,0,1,.284.235c.029.028.053.061.08.091a2.159,2.159,0,0,1,.166.2c.031.044.059.09.088.137a2.233,2.233,0,0,1,.107.2c.024.051.048.1.068.154a2.256,2.256,0,0,1-.877,2.652c-.043.028-.09.049-.135.074a2.149,2.149,0,0,1-.221.112c-.065.026-.134.043-.2.063s-.126.043-.193.056a2.287,2.287,0,0,1-.4.04l-.028,0-.028,0a2.28,2.28,0,0,1-.4-.04c-.066-.013-.129-.037-.193-.056l-.063-.02a3.877,3.877,0,0,1-.254.341,5.839,5.839,0,0,1,1.13,1.237c.071,0,.141-.005.21-.013l.082-.013c.108-.015.215-.033.321-.057l.043-.012c.119-.029.236-.063.35-.1h0c.09-.032.179-.063.266-.1V7.034c.033-.015.068-.026.1-.041l.053.068a.735.735,0,0,0,.129.133c1.049.838,1.7,1.866,1.93,4.573,0,1.471,0,1.471-.736,1.471a.735.735,0,0,0-.721.591l-.727,3.643c-.251,1-.835,1.647-1.491,1.649h-.007a1.294,1.294,0,0,1-1-.583,3.8,3.8,0,0,1-.835,1.246,2.941,2.941,0,0,0,.636.486c.039.022.078.044.118.064.077.037.155.07.235.1s.147.049.221.069.123.034.186.046a2.409,2.409,0,0,0,.433.043h.019a2.409,2.409,0,0,0,.433-.043c.063-.012.124-.029.185-.046s.149-.042.221-.069.159-.063.236-.1c.04-.02.079-.042.118-.064A3.762,3.762,0,0,0,52.6,17.794l.627-3.134c1.594-.272,1.594-1.663,1.591-2.956-.232-2.789-.909-4.37-2.4-5.6" transform="translate(-12.656)" fill="#004a80"/>
    <path id="Caminho_54" data-name="Caminho 54" d="M58.616,6.106A3.645,3.645,0,0,0,57.124.233c-.016-.007-.035-.01-.051-.015a3.6,3.6,0,0,0-.532-.15A3.481,3.481,0,0,0,55.894,0l-.021,0h0l-.021,0A3.474,3.474,0,0,0,55.2.068a3.6,3.6,0,0,0-.532.15c-.017.006-.035.009-.051.015a3.685,3.685,0,0,0-.588.281,3.7,3.7,0,0,1,1.175,1.07c.043-.013.086-.029.131-.04s.085-.024.129-.032a2.192,2.192,0,0,1,.395-.04h.017a2.192,2.192,0,0,1,.395.04c.044.008.087.021.129.032a2.171,2.171,0,0,1,.252.078c.046.018.092.036.136.057a2.086,2.086,0,0,1,.226.123c.038.024.078.044.115.07a2.22,2.22,0,0,1,.283.235c.029.028.054.061.08.091a2.056,2.056,0,0,1,.167.2c.031.044.058.09.088.137.038.064.074.13.107.2.024.051.047.1.068.154a2.169,2.169,0,0,1,.153.792,2.191,2.191,0,0,1-.811,1.7,2.029,2.029,0,0,1-.219.165c-.043.028-.089.049-.135.074a2.15,2.15,0,0,1-.221.112c-.065.026-.135.043-.2.063s-.126.043-.193.056a2.279,2.279,0,0,1-.4.04l-.028,0-.028,0a2.28,2.28,0,0,1-.4-.04c-.066-.013-.129-.037-.193-.056l-.064-.02a4.022,4.022,0,0,1-.254.341,5.839,5.839,0,0,1,1.13,1.237c.071,0,.141-.005.21-.013l.082-.013c.108-.015.215-.033.321-.057l.042-.012a3.644,3.644,0,0,0,.351-.1h0c.09-.032.179-.063.265-.1V7.034c.034-.015.068-.026.1-.041.017.022.036.046.052.068a.76.76,0,0,0,.129.133c1.05.838,1.7,1.866,1.93,4.573,0,1.471,0,1.471-.736,1.471a.735.735,0,0,0-.72.591l-.727,3.643c-.251,1-.835,1.647-1.491,1.649h-.008a1.293,1.293,0,0,1-1-.583,3.8,3.8,0,0,1-.835,1.246,2.937,2.937,0,0,0,.635.486c.039.022.079.044.118.064.077.037.155.07.235.1s.146.049.221.069.123.034.185.046a2.416,2.416,0,0,0,.433.043h.02a2.416,2.416,0,0,0,.433-.043c.063-.012.124-.029.185-.046s.149-.042.221-.069.159-.063.237-.1c.039-.02.079-.042.118-.064A3.764,3.764,0,0,0,58.8,17.794l.627-3.134c1.594-.272,1.594-1.663,1.592-2.956-.233-2.789-.909-4.37-2.4-5.6" transform="translate(-14.297)" fill="#004a80"/>
    <path id="Caminho_55" data-name="Caminho 55" d="M64.833,6.106A3.645,3.645,0,0,0,63.342.233c-.017-.007-.035-.01-.051-.015a3.613,3.613,0,0,0-.532-.15A3.479,3.479,0,0,0,62.112,0l-.021,0h0l-.021,0a3.473,3.473,0,0,0-.647.065,3.587,3.587,0,0,0-.532.15c-.017.006-.035.009-.051.015a3.684,3.684,0,0,0-.588.281,3.7,3.7,0,0,1,1.175,1.07c.043-.013.086-.029.131-.04s.086-.024.13-.032a2.192,2.192,0,0,1,.395-.04H62.1a2.192,2.192,0,0,1,.395.04c.044.008.087.021.13.032a2.159,2.159,0,0,1,.251.078c.046.018.092.036.137.057a2.157,2.157,0,0,1,.226.123c.038.024.077.044.114.07a2.227,2.227,0,0,1,.284.235c.029.028.053.061.08.091a2.159,2.159,0,0,1,.166.2c.031.044.059.09.088.137a2.235,2.235,0,0,1,.107.2c.024.051.048.1.068.154a2.256,2.256,0,0,1-.877,2.652c-.043.028-.09.049-.135.074a2.15,2.15,0,0,1-.221.112c-.065.026-.134.043-.2.063s-.126.043-.193.056a2.287,2.287,0,0,1-.4.04l-.028,0-.028,0a2.28,2.28,0,0,1-.4-.04c-.066-.013-.129-.037-.193-.056l-.063-.02a3.878,3.878,0,0,1-.254.341,5.839,5.839,0,0,1,1.13,1.237c.071,0,.141-.005.21-.013l.082-.013c.108-.015.215-.033.321-.057l.043-.012c.119-.029.236-.063.35-.1h0c.09-.032.179-.063.266-.1V7.034c.033-.015.068-.026.1-.041l.053.068a.735.735,0,0,0,.129.133c1.049.838,1.7,1.866,1.93,4.573,0,1.471,0,1.471-.736,1.471a.735.735,0,0,0-.721.591l-.727,3.643c-.251,1-.835,1.647-1.491,1.649h-.007a1.294,1.294,0,0,1-1-.583,3.8,3.8,0,0,1-.835,1.246,2.941,2.941,0,0,0,.636.486c.039.022.078.044.118.064.077.037.155.07.235.1s.147.049.221.069.123.034.186.046a2.409,2.409,0,0,0,.433.043H62.1a2.409,2.409,0,0,0,.433-.043c.063-.012.124-.029.185-.046s.149-.042.221-.069.159-.063.236-.1c.04-.02.079-.042.118-.064a3.762,3.762,0,0,0,1.725-2.475l.627-3.134c1.594-.272,1.594-1.663,1.591-2.956-.232-2.789-.909-4.37-2.4-5.6" transform="translate(-15.943)" fill="#004a80"/>
    <path id="Caminho_56" data-name="Caminho 56" d="M71.034,6.106A3.645,3.645,0,0,0,69.544.233c-.018-.007-.035-.01-.051-.015a3.613,3.613,0,0,0-.532-.15A3.486,3.486,0,0,0,68.313,0l-.021,0h0L68.27,0a3.472,3.472,0,0,0-.646.065,3.587,3.587,0,0,0-.532.15c-.017.006-.035.009-.051.015a3.722,3.722,0,0,0-.588.281,3.7,3.7,0,0,1,1.176,1.07c.043-.013.086-.029.131-.04s.086-.024.13-.032a2.192,2.192,0,0,1,.395-.04H68.3a2.206,2.206,0,0,1,.395.04c.044.008.086.021.13.032a2.158,2.158,0,0,1,.251.078c.046.018.092.036.137.057a2.159,2.159,0,0,1,.226.123c.037.024.077.044.114.07a2.226,2.226,0,0,1,.284.235c.029.028.053.061.08.091a2.161,2.161,0,0,1,.166.2c.031.044.059.09.087.137a2.063,2.063,0,0,1,.108.2c.024.051.048.1.068.154a2.256,2.256,0,0,1-.877,2.652c-.044.028-.09.049-.136.074a2.138,2.138,0,0,1-.221.112c-.065.026-.134.043-.2.063s-.126.043-.193.056a2.287,2.287,0,0,1-.4.04l-.028,0-.028,0a2.266,2.266,0,0,1-.4-.04c-.066-.013-.129-.037-.193-.056l-.063-.02a3.878,3.878,0,0,1-.254.341,5.839,5.839,0,0,1,1.13,1.237c.07,0,.141-.005.21-.013l.082-.013c.108-.015.215-.033.321-.057l.043-.012c.119-.029.236-.063.35-.1h0c.09-.032.179-.063.266-.1V7.034c.033-.015.068-.026.1-.041l.053.068a.735.735,0,0,0,.129.133c1.049.838,1.7,1.866,1.93,4.573,0,1.471,0,1.471-.736,1.471a.735.735,0,0,0-.721.591l-.727,3.643c-.251,1-.835,1.647-1.491,1.649h-.007a1.293,1.293,0,0,1-1-.583,3.8,3.8,0,0,1-.836,1.246,2.963,2.963,0,0,0,.637.486c.039.022.078.044.118.064.077.037.154.07.235.1s.147.049.221.069.123.034.186.046a2.409,2.409,0,0,0,.433.043H68.3a2.411,2.411,0,0,0,.434-.043c.063-.012.124-.029.185-.046s.149-.042.221-.069.159-.063.236-.1c.04-.02.078-.042.118-.064a3.762,3.762,0,0,0,1.725-2.475l.627-3.134c1.594-.272,1.594-1.663,1.591-2.956-.232-2.789-.909-4.37-2.4-5.6" transform="translate(-17.583)" fill="#004a80"/>
    <path id="Caminho_37174" data-name="Caminho 37174" d="M71.034,6.106A3.645,3.645,0,0,0,69.544.233c-.018-.007-.035-.01-.051-.015a3.613,3.613,0,0,0-.532-.15A3.486,3.486,0,0,0,68.313,0l-.021,0h0L68.27,0a3.472,3.472,0,0,0-.646.065,3.587,3.587,0,0,0-.532.15c-.017.006-.035.009-.051.015a3.722,3.722,0,0,0-.588.281,3.7,3.7,0,0,1,1.176,1.07c.043-.013.086-.029.131-.04s.086-.024.13-.032a2.192,2.192,0,0,1,.395-.04H68.3a2.206,2.206,0,0,1,.395.04c.044.008.086.021.13.032a2.158,2.158,0,0,1,.251.078c.046.018.092.036.137.057a2.159,2.159,0,0,1,.226.123c.037.024.077.044.114.07a2.226,2.226,0,0,1,.284.235c.029.028.053.061.08.091a2.161,2.161,0,0,1,.166.2c.031.044.059.09.087.137a2.063,2.063,0,0,1,.108.2c.024.051.048.1.068.154a2.256,2.256,0,0,1-.877,2.652c-.044.028-.09.049-.136.074a2.138,2.138,0,0,1-.221.112c-.065.026-.134.043-.2.063s-.126.043-.193.056a2.287,2.287,0,0,1-.4.04l-.028,0-.028,0a2.266,2.266,0,0,1-.4-.04c-.066-.013-.129-.037-.193-.056l-.063-.02a3.878,3.878,0,0,1-.254.341,5.839,5.839,0,0,1,1.13,1.237c.07,0,.141-.005.21-.013l.082-.013c.108-.015.215-.033.321-.057l.043-.012c.119-.029.236-.063.35-.1h0c.09-.032.179-.063.266-.1V7.034c.033-.015.068-.026.1-.041l.053.068a.735.735,0,0,0,.129.133c1.049.838,1.7,1.866,1.93,4.573,0,1.471,0,1.471-.736,1.471a.735.735,0,0,0-.721.591l-.727,3.643c-.251,1-.835,1.647-1.491,1.649h-.007a1.293,1.293,0,0,1-1-.583,3.8,3.8,0,0,1-.836,1.246,2.963,2.963,0,0,0,.637.486c.039.022.078.044.118.064.077.037.154.07.235.1s.147.049.221.069.123.034.186.046a2.409,2.409,0,0,0,.433.043H68.3a2.411,2.411,0,0,0,.434-.043c.063-.012.124-.029.185-.046s.149-.042.221-.069.159-.063.236-.1c.04-.02.078-.042.118-.064a3.762,3.762,0,0,0,1.725-2.475l.627-3.134c1.594-.272,1.594-1.663,1.591-2.956-.232-2.789-.909-4.37-2.4-5.6" transform="translate(-12.634)" fill="#004a80"/>
    <path id="Caminho_37175" data-name="Caminho 37175" d="M71.034,6.106A3.645,3.645,0,0,0,69.544.233c-.018-.007-.035-.01-.051-.015a3.613,3.613,0,0,0-.532-.15A3.486,3.486,0,0,0,68.313,0l-.021,0h0L68.27,0a3.472,3.472,0,0,0-.646.065,3.587,3.587,0,0,0-.532.15c-.017.006-.035.009-.051.015a3.722,3.722,0,0,0-.588.281,3.7,3.7,0,0,1,1.176,1.07c.043-.013.086-.029.131-.04s.086-.024.13-.032a2.192,2.192,0,0,1,.395-.04H68.3a2.206,2.206,0,0,1,.395.04c.044.008.086.021.13.032a2.158,2.158,0,0,1,.251.078c.046.018.092.036.137.057a2.159,2.159,0,0,1,.226.123c.037.024.077.044.114.07a2.226,2.226,0,0,1,.284.235c.029.028.053.061.08.091a2.161,2.161,0,0,1,.166.2c.031.044.059.09.087.137a2.063,2.063,0,0,1,.108.2c.024.051.048.1.068.154a2.256,2.256,0,0,1-.877,2.652c-.044.028-.09.049-.136.074a2.138,2.138,0,0,1-.221.112c-.065.026-.134.043-.2.063s-.126.043-.193.056a2.287,2.287,0,0,1-.4.04l-.028,0-.028,0a2.266,2.266,0,0,1-.4-.04c-.066-.013-.129-.037-.193-.056l-.063-.02a3.878,3.878,0,0,1-.254.341,5.839,5.839,0,0,1,1.13,1.237c.07,0,.141-.005.21-.013l.082-.013c.108-.015.215-.033.321-.057l.043-.012c.119-.029.236-.063.35-.1h0c.09-.032.179-.063.266-.1V7.034c.033-.015.068-.026.1-.041l.053.068a.735.735,0,0,0,.129.133c1.049.838,1.7,1.866,1.93,4.573,0,1.471,0,1.471-.736,1.471a.735.735,0,0,0-.721.591l-.727,3.643c-.251,1-.835,1.647-1.491,1.649h-.007a1.293,1.293,0,0,1-1-.583,3.8,3.8,0,0,1-.836,1.246,2.963,2.963,0,0,0,.637.486c.039.022.078.044.118.064.077.037.154.07.235.1s.147.049.221.069.123.034.186.046a2.409,2.409,0,0,0,.433.043H68.3a2.411,2.411,0,0,0,.434-.043c.063-.012.124-.029.185-.046s.149-.042.221-.069.159-.063.236-.1c.04-.02.078-.042.118-.064a3.762,3.762,0,0,0,1.725-2.475l.627-3.134c1.594-.272,1.594-1.663,1.591-2.956-.232-2.789-.909-4.37-2.4-5.6" transform="translate(-7.685)" fill="#004a80"/>
    <path id="Caminho_37176" data-name="Caminho 37176" d="M71.034,6.106A3.645,3.645,0,0,0,69.544.233c-.018-.007-.035-.01-.051-.015a3.613,3.613,0,0,0-.532-.15A3.486,3.486,0,0,0,68.313,0l-.021,0h0L68.27,0a3.472,3.472,0,0,0-.646.065,3.587,3.587,0,0,0-.532.15c-.017.006-.035.009-.051.015a3.722,3.722,0,0,0-.588.281,3.7,3.7,0,0,1,1.176,1.07c.043-.013.086-.029.131-.04s.086-.024.13-.032a2.192,2.192,0,0,1,.395-.04H68.3a2.206,2.206,0,0,1,.395.04c.044.008.086.021.13.032a2.158,2.158,0,0,1,.251.078c.046.018.092.036.137.057a2.159,2.159,0,0,1,.226.123c.037.024.077.044.114.07a2.226,2.226,0,0,1,.284.235c.029.028.053.061.08.091a2.161,2.161,0,0,1,.166.2c.031.044.059.09.087.137a2.063,2.063,0,0,1,.108.2c.024.051.048.1.068.154a2.256,2.256,0,0,1-.877,2.652c-.044.028-.09.049-.136.074a2.138,2.138,0,0,1-.221.112c-.065.026-.134.043-.2.063s-.126.043-.193.056a2.287,2.287,0,0,1-.4.04l-.028,0-.028,0a2.266,2.266,0,0,1-.4-.04c-.066-.013-.129-.037-.193-.056l-.063-.02a3.878,3.878,0,0,1-.254.341,5.839,5.839,0,0,1,1.13,1.237c.07,0,.141-.005.21-.013l.082-.013c.108-.015.215-.033.321-.057l.043-.012c.119-.029.236-.063.35-.1h0c.09-.032.179-.063.266-.1V7.034c.033-.015.068-.026.1-.041l.053.068a.735.735,0,0,0,.129.133c1.049.838,1.7,1.866,1.93,4.573,0,1.471,0,1.471-.736,1.471a.735.735,0,0,0-.721.591l-.727,3.643c-.251,1-.835,1.647-1.491,1.649h-.007a1.293,1.293,0,0,1-1-.583,3.8,3.8,0,0,1-.836,1.246,2.963,2.963,0,0,0,.637.486c.039.022.078.044.118.064.077.037.154.07.235.1s.147.049.221.069.123.034.186.046a2.409,2.409,0,0,0,.433.043H68.3a2.411,2.411,0,0,0,.434-.043c.063-.012.124-.029.185-.046s.149-.042.221-.069.159-.063.236-.1c.04-.02.078-.042.118-.064a3.762,3.762,0,0,0,1.725-2.475l.627-3.134c1.594-.272,1.594-1.663,1.591-2.956-.232-2.789-.909-4.37-2.4-5.6" transform="translate(-2.736)" fill="#004a80"/>
    <path id="Caminho_37177" data-name="Caminho 37177" d="M71.034,6.106A3.645,3.645,0,0,0,69.544.233c-.018-.007-.035-.01-.051-.015a3.613,3.613,0,0,0-.532-.15A3.486,3.486,0,0,0,68.313,0l-.021,0h0L68.27,0a3.472,3.472,0,0,0-.646.065,3.587,3.587,0,0,0-.532.15c-.017.006-.035.009-.051.015a3.722,3.722,0,0,0-.588.281,3.7,3.7,0,0,1,1.176,1.07c.043-.013.086-.029.131-.04s.086-.024.13-.032a2.192,2.192,0,0,1,.395-.04H68.3a2.206,2.206,0,0,1,.395.04c.044.008.086.021.13.032a2.158,2.158,0,0,1,.251.078c.046.018.092.036.137.057a2.159,2.159,0,0,1,.226.123c.037.024.077.044.114.07a2.226,2.226,0,0,1,.284.235c.029.028.053.061.08.091a2.161,2.161,0,0,1,.166.2c.031.044.059.09.087.137a2.063,2.063,0,0,1,.108.2c.024.051.048.1.068.154a2.256,2.256,0,0,1-.877,2.652c-.044.028-.09.049-.136.074a2.138,2.138,0,0,1-.221.112c-.065.026-.134.043-.2.063s-.126.043-.193.056a2.287,2.287,0,0,1-.4.04l-.028,0-.028,0a2.266,2.266,0,0,1-.4-.04c-.066-.013-.129-.037-.193-.056l-.063-.02a3.878,3.878,0,0,1-.254.341,5.839,5.839,0,0,1,1.13,1.237c.07,0,.141-.005.21-.013l.082-.013c.108-.015.215-.033.321-.057l.043-.012c.119-.029.236-.063.35-.1h0c.09-.032.179-.063.266-.1V7.034c.033-.015.068-.026.1-.041l.053.068a.735.735,0,0,0,.129.133c1.049.838,1.7,1.866,1.93,4.573,0,1.471,0,1.471-.736,1.471a.735.735,0,0,0-.721.591l-.727,3.643c-.251,1-.835,1.647-1.491,1.649h-.007a1.293,1.293,0,0,1-1-.583,3.8,3.8,0,0,1-.836,1.246,2.963,2.963,0,0,0,.637.486c.039.022.078.044.118.064.077.037.154.07.235.1s.147.049.221.069.123.034.186.046a2.409,2.409,0,0,0,.433.043H68.3a2.411,2.411,0,0,0,.434-.043c.063-.012.124-.029.185-.046s.149-.042.221-.069.159-.063.236-.1c.04-.02.078-.042.118-.064a3.762,3.762,0,0,0,1.725-2.475l.627-3.134c1.594-.272,1.594-1.663,1.591-2.956-.232-2.789-.909-4.37-2.4-5.6" transform="translate(1.506)" fill="#004a80"/>
  </g>
</svg>
