<svg xmlns="http://www.w3.org/2000/svg" width="25" height="28" viewBox="0 0 25 28">
  <g id="Grupo_14869" data-name="Grupo 14869" transform="translate(-896 -1369)">
    <path id="Caminho_37203" data-name="Caminho 37203" d="M12.482,0l-.6.49V4.73L8.191,2.43l-.786.229.081.849,4.4,2.864V12.8l-5.8-3.353L5.739,4.3l-.692-.539-.63.623.271,4.262L.981,6.5l-.751.3.122.738L4.039,9.666.189,11.741,0,12.5l.793.367,4.67-2.38,5.719,3.3L5.427,17.128.806,14.857,0,15.186l.218.824L4.06,17.919.317,20.081.2,20.859l.723.271L4.6,19.009l-.146,4.359.586.56.722-.511.278-5.241,5.79-3.349V21.61L7.551,24.488l-.116.841.853.234,3.54-2.36v4.3l.638.5.6-.489v-4.25l3.693,2.3.777-.229-.081-.849-4.4-2.866V14.853l5.862,3.389.35,5.147.692.539.632-.623-.271-4.261L24.017,21.2l.753-.3-.122-.738-3.688-2.132,3.852-2.075L25,15.187l-.793-.367L19.535,17.2,13.818,13.9l5.754-3.328,4.622,2.267L25,12.507l-.22-.824-3.842-1.91,3.743-2.161.112-.775-.722-.273L20.4,8.684l.144-4.359-.586-.562-.721.511-.279,5.243L13.119,12.9V6.382L17.395,3.5l.115-.841-.851-.234-3.54,2.36V.5Z" transform="translate(896 1369)" fill="#1d497c"/>
  </g>
</svg>
