<svg xmlns="http://www.w3.org/2000/svg" xmlns:xlink="http://www.w3.org/1999/xlink" width="78" height="78" viewBox="0 0 78 78">
  <defs>
    <filter id="Elipse_1" x="0" y="0" width="78" height="78" filterUnits="userSpaceOnUse">
      <feOffset dy="3" input="SourceAlpha"/>
      <feGaussianBlur stdDeviation="3" result="blur"/>
      <feFlood flood-opacity="0.149"/>
      <feComposite operator="in" in2="blur"/>
      <feComposite in="SourceGraphic"/>
    </filter>
  </defs>
  <g id="flutuante_whats" data-name="flutuante whats" transform="translate(-1226.98 -601)">
    <g transform="matrix(1, 0, 0, 1, 1226.98, 601)" filter="url(#Elipse_1)">
      <circle id="Elipse_1-2" data-name="Elipse 1" cx="30" cy="30" r="30" transform="translate(9 6)" fill="#00b456"/>
    </g>
    <path id="Caminho_1601" data-name="Caminho 1601" d="M18.155,0A17.908,17.908,0,0,0,2.569,9.3a19.17,19.17,0,0,0-.017,18.613L0,37.561l9.552-2.582a17.527,17.527,0,0,0,8.6,2.262h0c9.946,0,18.01-8.337,18.01-18.62S28.1,0,18.155,0m0,34.093h0a14.577,14.577,0,0,1-7.62-2.15L9.989,31.6,4.32,33.132l1.513-5.71-.365-.584A15.876,15.876,0,0,1,7.285,7.979,14.609,14.609,0,0,1,25.4,5.085,15.681,15.681,0,0,1,32.637,22.5,15.062,15.062,0,0,1,18.137,34.1m8.2-11.6c-.456-.226-2.661-1.357-3.081-1.508s-.711-.226-1.021.226-1.167,1.508-1.422,1.828-.529.358-.966.113a12.518,12.518,0,0,1-3.609-2.3,13.937,13.937,0,0,1-2.479-3.223.676.676,0,0,1,.2-.942,9.726,9.726,0,0,0,.674-.81,3.207,3.207,0,0,0,.456-.773.873.873,0,0,0-.036-.81c-.109-.226-1.021-2.525-1.385-3.449s-.729-.792-1.021-.792h-.875a1.633,1.633,0,0,0-1.2.528A5.264,5.264,0,0,0,9,14.474a9,9,0,0,0,1.841,4.806c.237.3,3.172,5.013,7.692,7.03a25.384,25.384,0,0,0,2.57.98,5.967,5.967,0,0,0,2.825.188,4.714,4.714,0,0,0,3.044-2.2,3.739,3.739,0,0,0,.255-2.2c-.128-.188-.419-.3-.857-.547" transform="translate(1248.54 617.622)" fill="#fff"/>
  </g>
</svg>
