<svg id="Componente_48_1" data-name="Componente 48 – 1" xmlns="http://www.w3.org/2000/svg" xmlns:xlink="http://www.w3.org/1999/xlink" width="18.111" height="16.812" viewBox="0 0 18.111 16.812">
  <defs>
    <clipPath id="clip-path">
      <rect id="Retângulo_36694" data-name="Retângulo 36694" width="18.112" height="16.812" fill="#004a80"/>
    </clipPath>
  </defs>
  <g id="Grupo_14992" data-name="Grupo 14992" clip-path="url(#clip-path)">
    <path id="Caminho_40010" data-name="Caminho 40010" d="M19.531,96.364a1.438,1.438,0,0,1-1.073-.552,2.235,2.235,0,0,0-1.647-.757h0a2.23,2.23,0,0,0-1.69.759,1.319,1.319,0,0,1-2.145,0,2.261,2.261,0,0,0-3.38,0,1.437,1.437,0,0,1-1.072.552,1.437,1.437,0,0,1-1.072-.552,2.261,2.261,0,0,0-3.379,0A1.437,1.437,0,0,1,3,96.364v.459a2.229,2.229,0,0,0,1.69-.759,1.438,1.438,0,0,1,1.072-.552,1.438,1.438,0,0,1,1.072.552,2.26,2.26,0,0,0,3.379,0,1.438,1.438,0,0,1,1.072-.552,1.438,1.438,0,0,1,1.073.552,2.261,2.261,0,0,0,3.38,0,1.438,1.438,0,0,1,1.073-.552v0a1.464,1.464,0,0,1,1.03.549,2.23,2.23,0,0,0,1.69.759h.021v-.459h-.021" transform="translate(-2.621 -83.044)" fill="#004a80"/>
    <path id="Caminho_40011" data-name="Caminho 40011" d="M16.91,94.581a2.585,2.585,0,0,1-1.951-.863c-.333-.316-.487-.436-.78-.445h-.041c-.278.013-.43.134-.76.446a2.637,2.637,0,0,1-3.9,0c-.349-.332-.5-.448-.812-.448s-.462.116-.811.448a2.636,2.636,0,0,1-3.9,0c-.349-.331-.5-.447-.811-.447s-.462.116-.812.448a2.585,2.585,0,0,1-1.951.863H0V93.364H.379c.312,0,.462-.116.811-.447a2.586,2.586,0,0,1,1.951-.863,2.585,2.585,0,0,1,1.95.863c.349.332.5.448.812.448s.462-.116.811-.447a2.636,2.636,0,0,1,3.9,0c.349.331.5.447.812.447s.462-.116.812-.447a2.586,2.586,0,0,1,1.951-.863h.379v.031a2.692,2.692,0,0,1,1.529.831c.345.328.5.445.8.447h.026l.385-.006V94.58Z" transform="translate(0 -80.423)" fill="#004a80"/>
    <path id="Caminho_40012" data-name="Caminho 40012" d="M19.531,117.364a1.438,1.438,0,0,1-1.073-.552,2.235,2.235,0,0,0-1.647-.757h0a2.23,2.23,0,0,0-1.69.759,1.319,1.319,0,0,1-2.145,0,2.261,2.261,0,0,0-3.38,0,1.437,1.437,0,0,1-1.072.552,1.437,1.437,0,0,1-1.072-.552,2.261,2.261,0,0,0-3.379,0A1.437,1.437,0,0,1,3,117.364v.459a2.229,2.229,0,0,0,1.69-.759,1.438,1.438,0,0,1,1.072-.552,1.438,1.438,0,0,1,1.072.552,2.26,2.26,0,0,0,3.379,0,1.438,1.438,0,0,1,1.072-.552,1.438,1.438,0,0,1,1.073.552,2.261,2.261,0,0,0,3.38,0,1.438,1.438,0,0,1,1.073-.552v0a1.464,1.464,0,0,1,1.03.549,2.23,2.23,0,0,0,1.69.759h.021v-.459h-.021" transform="translate(-2.621 -101.39)" fill="#004a80"/>
    <path id="Caminho_40013" data-name="Caminho 40013" d="M16.91,115.581a2.586,2.586,0,0,1-1.951-.863c-.333-.316-.487-.436-.78-.445h-.04c-.278.013-.431.133-.76.446a2.637,2.637,0,0,1-3.9,0c-.349-.331-.5-.447-.812-.447s-.462.116-.811.447a2.636,2.636,0,0,1-3.9,0c-.349-.331-.5-.447-.811-.447s-.462.116-.812.447a2.585,2.585,0,0,1-1.951.863H0v-1.217H.379c.312,0,.462-.116.811-.447a2.585,2.585,0,0,1,1.951-.863,2.585,2.585,0,0,1,1.951.863c.349.331.5.447.811.447s.462-.116.811-.447a2.636,2.636,0,0,1,3.9,0c.349.331.5.447.812.447s.462-.116.812-.447a2.585,2.585,0,0,1,1.951-.863h.379v.031a2.692,2.692,0,0,1,1.529.832c.345.327.5.445.8.447h.026l.385-.006v1.224Z" transform="translate(0 -98.769)" fill="#004a80"/>
    <path id="Caminho_40014" data-name="Caminho 40014" d="M4.435,15.765v3.182A1.858,1.858,0,0,0,6.289,20.8H9.5a1.857,1.857,0,0,0,1.855-1.855V15.828l-.042-.037,1.434,1.254a.417.417,0,0,0,.57-.61l-.021-.018-5.13-4.485a.417.417,0,0,0-.547,0L2.393,16.414a.418.418,0,1,0,.528.648l.017-.014Zm6.228,3.182A1.161,1.161,0,0,1,9.5,20.106H6.289a1.161,1.161,0,0,1-1.158-1.159V15.168L7.895,12.8l2.766,2.42Z" transform="translate(-1.956 -10.335)" fill="#004a80"/>
    <path id="Caminho_40015" data-name="Caminho 40015" d="M8.2,19.688H4.981a2.051,2.051,0,0,1-2.044-2.044v-2.77L1.753,15.888l-.02.017a.607.607,0,1,1-.767-.942l5.228-4.479a.609.609,0,0,1,.794,0l5.13,4.486.026.023a.607.607,0,0,1-.829.886l-1.073-.938v2.7A2.05,2.05,0,0,1,8.2,19.688M3.316,14.049v3.594a1.671,1.671,0,0,0,1.665,1.666H8.2a1.67,1.67,0,0,0,1.666-1.666V14.524h.113l.159-.18L11.569,15.6a.23.23,0,0,0,.327-.006.228.228,0,0,0-.011-.322l-5.146-4.5a.228.228,0,0,0-.3,0L1.208,15.254a.228.228,0,1,0,.285.357ZM8.2,18.992H4.981a1.353,1.353,0,0,1-1.348-1.348V13.777l2.954-2.532L9.542,13.83l0,3.814A1.353,1.353,0,0,1,8.2,18.992m-4.184-5.04v3.692a.973.973,0,0,0,.969.969H8.2a.973.973,0,0,0,.969-.97l0-3.641L6.585,11.746Z" transform="translate(-0.648 -9.031)" fill="#004a80"/>
    <path id="Caminho_40016" data-name="Caminho 40016" d="M102.98,18.221h1.447a7.2,7.2,0,0,0,.688-4.752c-.632-2.78-1.134-4.273-1.155-4.336l-1.2.4c.005.015.5,1.5,1.12,4.211a6.282,6.282,0,0,1-.9,4.472" transform="translate(-89.778 -7.979)" fill="#004a80"/>
    <path id="Caminho_40017" data-name="Caminho 40017" d="M112.466,1.649a.442.442,0,0,0-.04-.1A2.71,2.71,0,0,0,110.418.01a3.085,3.085,0,0,0-2.306,1.03.442.442,0,0,0,.661.588A2.225,2.225,0,0,1,110.33.89a1.626,1.626,0,0,1,1.105.76Z" transform="translate(-94.354 0)" fill="#004a80"/>
    <path id="Caminho_40018" data-name="Caminho 40018" d="M112.033,14.041a.439.439,0,0,0-.009-.065,2.306,2.306,0,0,0-1.07-1.533,2.627,2.627,0,0,0-1.886-.189.442.442,0,0,0,.254.847,1.742,1.742,0,0,1,1.2.114,1.384,1.384,0,0,1,.6.825Z" transform="translate(-95.012 -10.623)" fill="#004a80"/>
    <path id="Caminho_40019" data-name="Caminho 40019" d="M75,2.649a.442.442,0,0,1,.04-.1A2.71,2.71,0,0,1,77.048,1.01a3.085,3.085,0,0,1,2.306,1.03.442.442,0,0,1-.661.588,2.225,2.225,0,0,0-1.556-.737,1.626,1.626,0,0,0-1.105.76Z" transform="translate(-65.523 -0.873)" fill="#004a80"/>
    <path id="Caminho_40020" data-name="Caminho 40020" d="M83.638,15.041a.439.439,0,0,1,.009-.065,2.306,2.306,0,0,1,1.07-1.533,2.627,2.627,0,0,1,1.886-.189.442.442,0,0,1-.254.847,1.742,1.742,0,0,0-1.2.114,1.384,1.384,0,0,0-.6.825Z" transform="translate(-73.07 -11.497)" fill="#004a80"/>
  </g>
</svg>
