<svg id="Componente_24_2" data-name="Componente 24 – 2" xmlns="http://www.w3.org/2000/svg" xmlns:xlink="http://www.w3.org/1999/xlink" width="20.56" height="22.423" viewBox="0 0 20.56 22.423">
  <defs>
    <clipPath id="clip-path">
      <rect id="Retângulo_36615" data-name="Retângulo 36615" width="20.56" height="22.423" transform="translate(-3 -3)" fill="#004a80"/>
    </clipPath>
  </defs>
  <g id="Grupo_14830" data-name="Grupo 14830" transform="translate(3 3)" clip-path="url(#clip-path)">
    <path id="Caminho_37186" data-name="Caminho 37186" d="M.789,20.719a.92.92,0,0,1,1.841,0,.39.39,0,0,0,.043.176,1.707,1.707,0,0,0,3.388-.1.4.4,0,0,0,.008-.08.92.92,0,0,1,1.841,0,.39.39,0,0,0,.043.176,1.707,1.707,0,0,0,3.388-.1.4.4,0,0,0,.009-.08.92.92,0,0,1,1.84,0,.394.394,0,1,0,.789,0,1.709,1.709,0,0,0-3.409-.163.4.4,0,0,0-.008.08.92.92,0,0,1-1.84,0,.393.393,0,0,0-.043-.175,1.708,1.708,0,0,0-3.388.095.4.4,0,0,0-.008.08.92.92,0,0,1-1.84,0,.393.393,0,0,0-.043-.175,1.708,1.708,0,0,0-3.4.257.394.394,0,0,0,.394.395.4.4,0,0,0,.048,0,.394.394,0,0,0,.346-.39" transform="translate(0 -9.814)" fill="#004a80"/>
    <path id="Caminho_37187" data-name="Caminho 37187" d="M19.5,1.709V3.237H15.376V1.709a1.009,1.009,0,0,1,2.01,0,.394.394,0,0,0,.789,0,1.8,1.8,0,0,0-3.588,0V8.066a.394.394,0,1,0,.789,0V6.708H19.5V8.066a.394.394,0,1,0,.789,0V1.709a1.009,1.009,0,0,1,2.01,0,.395.395,0,0,0,.789,0,1.8,1.8,0,0,0-3.588,0M15.376,4.026H19.5V5.92H15.376Z" transform="translate(-7.531 -1)" fill="#004a80"/>
    <path id="Caminho_37188" data-name="Caminho 37188" d="M12.267,27.055a1.711,1.711,0,0,0-1.7,1.546.443.443,0,0,0-.008.08.92.92,0,1,1-1.84,0,.389.389,0,0,0-.043-.175,1.708,1.708,0,0,0-3.388.095.443.443,0,0,0-.008.08.92.92,0,1,1-1.84,0,.388.388,0,0,0-.043-.175,1.708,1.708,0,0,0-3.4.257.4.4,0,0,0,.394.395.407.407,0,0,0,.049,0,.393.393,0,0,0,.345-.39.92.92,0,0,1,1.841,0,.39.39,0,0,0,.043.176,1.708,1.708,0,0,0,3.388-.1.4.4,0,0,0,.008-.08.92.92,0,0,1,1.84,0,.391.391,0,0,0,.043.176,1.707,1.707,0,0,0,3.388-.1.4.4,0,0,0,.008-.08.92.92,0,0,1,1.84,0,.394.394,0,1,0,.789,0,1.712,1.712,0,0,0-1.709-1.709" transform="translate(0 -13.967)" fill="#004a80"/>
  </g>
</svg>
