<svg id="Componente_25_2" data-name="Componente 25 – 2" xmlns="http://www.w3.org/2000/svg" width="15.759" height="17.329" viewBox="0 0 15.759 17.329">
  <path id="Caminho_37203" data-name="Caminho 37203" d="M7.868,0,7.492.3V2.927L5.163,1.5l-.5.142.051.526L7.494,3.944v3.98L3.839,5.849,3.618,2.663l-.436-.334-.4.386.171,2.638L.618,4.02l-.474.186.077.457,2.325,1.32L.119,7.266,0,7.739l.5.227L3.444,6.493l3.6,2.045L3.421,10.6.508,9.195,0,9.4l.138.51L2.559,11.09.2,12.428l-.071.481.456.168L2.9,11.764l-.092,2.7.369.347.455-.317.175-3.244,3.65-2.073v4.2l-2.7,1.781-.073.52.537.145L7.455,14.36v2.659l.4.31.376-.3V14.4L10.56,15.82l.49-.142L11,15.153,8.224,13.379V9.193l3.695,2.1.221,3.186.436.334.4-.386L12.8,11.786l2.335,1.332.474-.186-.077-.457-2.325-1.32L15.64,9.872l.119-.473-.5-.227-2.944,1.474L8.71,8.6l3.627-2.059,2.913,1.4.508-.2-.138-.51L13.2,6.048l2.36-1.338.071-.48-.455-.169L12.861,5.375l.091-2.7-.369-.348-.454.317L11.953,5.89,8.269,7.982V3.95l2.7-1.782.072-.52L10.5,1.5,8.269,2.964V.31Z" transform="translate(0)" fill="#1d497c"/>
</svg>
