<svg id="Grupo_12" data-name="Grupo 12" xmlns="http://www.w3.org/2000/svg" xmlns:xlink="http://www.w3.org/1999/xlink" width="42" height="29.124" viewBox="0 0 42 29.124">
  <defs>
    <clipPath id="clip-path">
      <rect id="Retângulo_36" data-name="Retângulo 36" width="42" height="29.124" fill="#004a80"/>
    </clipPath>
  </defs>
  <g id="Grupo_11" data-name="Grupo 11" transform="translate(0)" clip-path="url(#clip-path)">
    <path id="Caminho_46" data-name="Caminho 46" d="M11.159,8.636A5.155,5.155,0,0,0,9.049.33C9.026.32,9,.316,8.978.307A5.24,5.24,0,0,0,8.225.095,5.02,5.02,0,0,0,7.31,0c-.01,0-.02,0-.029,0h0c-.009,0-.019,0-.028,0a5,5,0,0,0-.915.092,5.166,5.166,0,0,0-.753.212C5.557.316,5.532.32,5.51.33A5.154,5.154,0,0,0,3.4,8.636C1.287,10.375.329,12.612,0,16.556c0,1.828,0,3.794,2.251,4.18l.886,4.431a5.325,5.325,0,0,0,2.441,3.5c.055.03.109.062.165.089.11.053.221.1.334.141s.208.069.313.1c.087.023.174.049.262.066a3.527,3.527,0,0,0,.614.061h.027a3.525,3.525,0,0,0,.613-.061c.089-.017.175-.043.262-.066.106-.028.21-.058.313-.1a3.608,3.608,0,0,0,.334-.141c.056-.027.111-.059.166-.089a5.321,5.321,0,0,0,2.44-3.5l.886-4.431c2.254-.386,2.254-2.353,2.251-4.18-.329-3.944-1.286-6.18-3.4-7.92M9.254,7.6a3.063,3.063,0,0,1-.31.234c-.061.038-.127.07-.191.1a3.034,3.034,0,0,1-.313.157,2.924,2.924,0,0,1-.285.089c-.092.026-.179.06-.274.079a3.125,3.125,0,0,1-.562.056c-.014,0-.026,0-.04,0s-.026,0-.04,0a3.127,3.127,0,0,1-.563-.056c-.095-.019-.182-.053-.273-.079s-.193-.052-.286-.089a3.142,3.142,0,0,1-.313-.157c-.063-.034-.13-.066-.191-.1A3.063,3.063,0,0,1,5.3,7.6a3.055,3.055,0,0,1-.93-3.518c.028-.074.062-.145.1-.216a3.185,3.185,0,0,1,.153-.281c.04-.064.079-.13.124-.192a3.231,3.231,0,0,1,.234-.284c.038-.043.073-.088.113-.129a3.149,3.149,0,0,1,.4-.332c.052-.035.108-.066.162-.1a2.951,2.951,0,0,1,.319-.174c.062-.029.127-.055.192-.08a3.189,3.189,0,0,1,.355-.111c.062-.015.123-.033.185-.045a3.187,3.187,0,0,1,.559-.056H7.29a3.177,3.177,0,0,1,.559.056c.063.011.124.03.185.045a3.188,3.188,0,0,1,.355.111c.066.025.13.051.193.08a3.037,3.037,0,0,1,.318.174c.054.032.11.062.162.1a3.149,3.149,0,0,1,.4.332c.041.041.075.086.113.129a3.056,3.056,0,0,1,.234.284c.045.062.084.128.124.192a2.935,2.935,0,0,1,.153.281c.034.072.068.142.1.216A3.059,3.059,0,0,1,9.254,7.6m2.187,11.125a1.039,1.039,0,0,0-1.019.836l-1.03,5.153c-.354,1.415-1.181,2.329-2.107,2.332H7.274c-.927,0-1.754-.917-2.107-2.332L4.138,19.559a1.041,1.041,0,0,0-1.02-.836c-1.04,0-1.04,0-1.04-2.08.322-3.829,1.246-5.282,2.729-6.469a1.04,1.04,0,0,0,.183-.187c.023-.032.05-.064.075-.1.046.022.095.038.14.058V9.96c.123.054.25.1.377.144h0c.161.056.327.105.494.146.021.005.041.012.061.017.148.034.3.06.452.081.04.005.077.015.115.019a4.963,4.963,0,0,0,.545.032l.026,0h0l.026,0a4.963,4.963,0,0,0,.545-.032c.04,0,.077-.014.115-.019.153-.021.3-.047.453-.081.02,0,.04-.011.06-.017.169-.041.333-.089.5-.146h0c.127-.045.254-.089.377-.144V9.948c.047-.02.095-.036.14-.058.025.032.052.064.076.1a1,1,0,0,0,.182.187c1.484,1.187,2.407,2.64,2.729,6.469,0,2.08,0,2.08-1.04,2.08" transform="translate(0)" fill="#004a80"/>
    <path id="Caminho_47" data-name="Caminho 47" d="M17.054,8.636A5.155,5.155,0,0,0,14.946.33C14.922.32,14.9.316,14.874.308A5.11,5.11,0,0,0,14.121.1,4.921,4.921,0,0,0,13.206,0c-.01,0-.019,0-.029,0h0c-.01,0-.02,0-.029,0A4.912,4.912,0,0,0,12.23.1a5.074,5.074,0,0,0-.753.212c-.024.008-.049.012-.072.022a5.211,5.211,0,0,0-.831.4A5.24,5.24,0,0,1,12.236,2.24c.061-.019.122-.042.185-.057s.122-.033.184-.045a3.1,3.1,0,0,1,.559-.057h.023a3.1,3.1,0,0,1,.559.057c.062.011.123.029.184.045a3.054,3.054,0,0,1,.355.11c.066.025.13.051.193.08a3.052,3.052,0,0,1,.319.174c.053.033.109.062.161.1a3.149,3.149,0,0,1,.4.332c.042.04.075.086.113.129a3.053,3.053,0,0,1,.235.283c.044.062.083.128.124.193a3.156,3.156,0,0,1,.152.28c.034.072.068.144.1.217A3.191,3.191,0,0,1,14.84,7.831c-.061.04-.127.07-.191.1a3.041,3.041,0,0,1-.313.158c-.092.036-.189.06-.285.088s-.179.06-.273.079a3.235,3.235,0,0,1-.563.057c-.014,0-.026,0-.04,0s-.026,0-.04,0a3.225,3.225,0,0,1-.563-.057c-.094-.019-.182-.052-.273-.079-.03-.008-.059-.02-.089-.028a5.484,5.484,0,0,1-.36.483,8.258,8.258,0,0,1,1.6,1.749c.1-.006.2-.007.3-.018.04-.005.077-.014.115-.019.153-.022.3-.047.453-.081l.06-.017c.169-.042.334-.089.5-.147h0c.127-.045.254-.089.377-.144V9.949c.047-.021.1-.037.141-.058l.075.1a1.039,1.039,0,0,0,.182.188c1.484,1.186,2.407,2.64,2.73,6.468,0,2.08,0,2.08-1.041,2.08a1.04,1.04,0,0,0-1.019.836l-1.029,5.153c-.355,1.415-1.182,2.329-2.108,2.332h-.01a1.831,1.831,0,0,1-1.415-.825,5.379,5.379,0,0,1-1.182,1.762,4.16,4.16,0,0,0,.9.688c.055.031.11.062.166.09.109.052.219.1.333.14s.208.069.313.1c.087.023.174.048.263.064a3.408,3.408,0,0,0,.613.061h.027a3.408,3.408,0,0,0,.613-.061c.089-.017.175-.042.262-.064.106-.029.211-.059.313-.1s.225-.088.334-.14c.056-.028.111-.059.166-.09a5.321,5.321,0,0,0,2.44-3.5l.886-4.432c2.255-.385,2.254-2.353,2.251-4.18-.329-3.944-1.286-6.18-3.4-7.92" transform="translate(0.424)" fill="#004a80"/>
    <path id="Caminho_48" data-name="Caminho 48" d="M23.256,8.636A5.155,5.155,0,0,0,21.148.33C21.124.32,21.1.316,21.076.308A5.11,5.11,0,0,0,20.323.1,4.921,4.921,0,0,0,19.408,0c-.01,0-.019,0-.029,0h0c-.01,0-.02,0-.029,0A4.912,4.912,0,0,0,18.432.1a5.074,5.074,0,0,0-.753.212c-.024.008-.049.012-.072.022a5.211,5.211,0,0,0-.831.4A5.24,5.24,0,0,1,18.438,2.24c.061-.019.122-.042.185-.057s.122-.033.184-.045a3.1,3.1,0,0,1,.559-.057h.023a3.1,3.1,0,0,1,.559.057c.062.011.123.029.184.045a3.054,3.054,0,0,1,.355.11c.066.025.13.051.193.08A3.052,3.052,0,0,1,21,2.547c.053.033.109.062.161.1a3.149,3.149,0,0,1,.4.332c.042.04.075.086.113.129a3.053,3.053,0,0,1,.235.283c.044.062.083.128.124.193a3.156,3.156,0,0,1,.152.28c.034.072.068.144.1.217a3.191,3.191,0,0,1-1.241,3.751c-.061.04-.127.07-.191.1a3.041,3.041,0,0,1-.313.158c-.092.036-.189.06-.285.088s-.179.06-.273.079a3.235,3.235,0,0,1-.563.057c-.014,0-.026,0-.04,0s-.026,0-.04,0a3.225,3.225,0,0,1-.563-.057c-.094-.019-.182-.052-.273-.079-.03-.008-.059-.02-.089-.028a5.484,5.484,0,0,1-.36.483,8.258,8.258,0,0,1,1.6,1.749c.1-.006.2-.007.3-.018.04-.005.077-.014.115-.019.153-.022.3-.047.453-.081l.06-.017c.169-.042.334-.089.5-.147h0c.127-.045.254-.089.377-.144V9.949c.047-.021.1-.037.141-.058l.075.1a1.039,1.039,0,0,0,.182.188c1.484,1.186,2.407,2.64,2.73,6.468,0,2.08,0,2.08-1.041,2.08a1.04,1.04,0,0,0-1.019.836l-1.029,5.153c-.355,1.415-1.182,2.329-2.108,2.332h-.01a1.831,1.831,0,0,1-1.415-.825,5.379,5.379,0,0,1-1.182,1.762,4.16,4.16,0,0,0,.9.688c.055.031.11.062.166.09.109.052.219.1.333.14s.208.069.313.1c.087.023.174.048.263.064a3.408,3.408,0,0,0,.613.061h.027A3.408,3.408,0,0,0,20,29.061c.089-.017.175-.042.262-.064.106-.029.211-.059.313-.1s.225-.088.334-.14c.056-.028.111-.059.166-.09a5.321,5.321,0,0,0,2.44-3.5l.886-4.432c2.255-.385,2.254-2.353,2.251-4.18-.329-3.944-1.286-6.18-3.4-7.92" transform="translate(0.673)" fill="#004a80"/>
    <path id="Caminho_49" data-name="Caminho 49" d="M29.473,8.636A5.155,5.155,0,0,0,27.365.33c-.023-.009-.049-.014-.072-.022A5.11,5.11,0,0,0,26.54.1,4.912,4.912,0,0,0,25.625,0c-.009,0-.019,0-.029,0h0c-.01,0-.02,0-.029,0A4.912,4.912,0,0,0,24.649.1,5.074,5.074,0,0,0,23.9.308c-.024.008-.049.012-.072.022a5.211,5.211,0,0,0-.831.4A5.24,5.24,0,0,1,24.655,2.24c.061-.019.122-.042.185-.057s.122-.033.184-.045a3.1,3.1,0,0,1,.559-.057h.023a3.091,3.091,0,0,1,.559.057c.062.011.123.029.184.045a3.053,3.053,0,0,1,.355.11c.066.025.13.051.195.08a3.145,3.145,0,0,1,.318.174c.053.033.109.062.161.1a3.079,3.079,0,0,1,.4.332c.042.04.076.086.113.129a3.054,3.054,0,0,1,.235.283c.044.062.083.128.125.193.054.09.105.184.151.28.034.072.068.144.1.217a3.191,3.191,0,0,1-1.241,3.751c-.061.04-.127.07-.191.1a2.939,2.939,0,0,1-.313.158c-.092.036-.189.06-.285.088s-.179.06-.273.079a3.235,3.235,0,0,1-.563.057c-.014,0-.026,0-.04,0s-.026,0-.04,0a3.225,3.225,0,0,1-.563-.057c-.093-.019-.182-.052-.273-.079-.029-.008-.058-.02-.089-.028a5.688,5.688,0,0,1-.359.483,8.28,8.28,0,0,1,1.6,1.749c.1-.006.2-.007.3-.018.04-.005.077-.014.115-.019.153-.022.3-.047.453-.081l.06-.017c.169-.042.334-.089.5-.147h0c.127-.045.254-.089.377-.144V9.949c.047-.021.1-.037.142-.058.023.031.051.064.074.1a1.081,1.081,0,0,0,.183.188c1.484,1.186,2.406,2.64,2.73,6.468,0,2.08,0,2.08-1.042,2.08a1.04,1.04,0,0,0-1.019.836l-1.029,5.153c-.355,1.415-1.182,2.329-2.107,2.332h-.01a1.831,1.831,0,0,1-1.416-.825,5.363,5.363,0,0,1-1.182,1.762,4.16,4.16,0,0,0,.9.688c.055.031.111.062.166.09.109.052.219.1.333.14s.208.069.313.1c.087.023.174.048.263.064a3.408,3.408,0,0,0,.613.061h.027a3.408,3.408,0,0,0,.613-.061c.089-.017.175-.042.262-.064.106-.029.211-.059.313-.1s.225-.088.334-.14c.056-.028.111-.059.166-.09a5.318,5.318,0,0,0,2.44-3.5l.886-4.432c2.255-.385,2.254-2.353,2.252-4.18-.33-3.944-1.286-6.18-3.4-7.92" transform="translate(0.923)" fill="#004a80"/>
    <path id="Caminho_50" data-name="Caminho 50" d="M35.675,8.636A5.155,5.155,0,0,0,33.567.33c-.024-.009-.049-.014-.072-.022A5.11,5.11,0,0,0,32.742.1,4.921,4.921,0,0,0,31.827,0c-.01,0-.019,0-.029,0h0c-.01,0-.02,0-.029,0A4.912,4.912,0,0,0,30.851.1,5.074,5.074,0,0,0,30.1.308c-.024.008-.049.012-.072.022a5.211,5.211,0,0,0-.831.4A5.24,5.24,0,0,1,30.857,2.24c.061-.019.122-.042.185-.057s.122-.033.184-.045a3.1,3.1,0,0,1,.559-.057h.023a3.1,3.1,0,0,1,.559.057c.062.011.123.029.184.045a3.054,3.054,0,0,1,.355.11c.066.025.13.051.193.08a3.053,3.053,0,0,1,.319.174c.053.033.109.062.161.1a3.15,3.15,0,0,1,.4.332c.042.04.075.086.113.129a3.054,3.054,0,0,1,.235.283c.044.062.083.128.124.193a3.156,3.156,0,0,1,.152.28c.034.072.068.144.1.217a3.191,3.191,0,0,1-1.241,3.751c-.061.04-.127.07-.191.1a3.041,3.041,0,0,1-.313.158c-.092.036-.189.06-.285.088s-.179.06-.273.079a3.235,3.235,0,0,1-.563.057c-.014,0-.026,0-.04,0s-.026,0-.04,0a3.225,3.225,0,0,1-.563-.057c-.094-.019-.182-.052-.273-.079-.03-.008-.059-.02-.089-.028a5.484,5.484,0,0,1-.36.483,8.258,8.258,0,0,1,1.6,1.749c.1-.006.2-.007.3-.018.04-.005.077-.014.115-.019.153-.022.3-.047.453-.081l.06-.017c.168-.042.334-.089.5-.147h0c.127-.045.254-.089.377-.144V9.949c.047-.021.1-.037.141-.058l.075.1a1.039,1.039,0,0,0,.182.188c1.484,1.186,2.407,2.64,2.73,6.468,0,2.08,0,2.08-1.041,2.08a1.04,1.04,0,0,0-1.019.836L33.91,24.711c-.355,1.415-1.182,2.329-2.108,2.332h-.01a1.831,1.831,0,0,1-1.415-.825A5.379,5.379,0,0,1,29.2,27.981a4.16,4.16,0,0,0,.9.688c.055.031.11.062.166.09.109.052.219.1.333.14s.208.069.313.1c.087.023.174.048.263.064a3.408,3.408,0,0,0,.613.061h.027a3.408,3.408,0,0,0,.613-.061c.089-.017.175-.042.262-.064.106-.029.211-.059.313-.1s.225-.088.334-.14c.056-.028.111-.059.166-.09a5.321,5.321,0,0,0,2.44-3.5l.886-4.432c2.255-.385,2.254-2.353,2.251-4.18-.329-3.944-1.286-6.18-3.4-7.92" transform="translate(1.172)" fill="#004a80"/>
  </g>
</svg>
